<svg xmlns="http://www.w3.org/2000/svg" viewBox="0 0 331.56 463.26"><g id="bde995a0-0a2c-4fa7-aa40-5f7687f0a248" data-name="Capa 2"><g id="b352ec29-8d98-4d65-9bd6-f46889ac7565" data-name="Capa 3"><path d="M331.56,235.09a303.2,303.2,0,0,1-16.41,97.11c-8.57,24.82-20.32,48-36.33,68.85-13.36,17.41-29,32.32-47.92,43.64a127.9,127.9,0,0,1-44.17,16.72c-24.8,4.29-48.69,1.07-71.64-9.19-17.7-7.92-33-19.24-46.6-33-17.71-18-31.26-38.82-41.87-61.64a280.94,280.94,0,0,1-20.7-64.4A311.3,311.3,0,0,1,.69,253.05a327.52,327.52,0,0,1-.11-40.73,306.64,306.64,0,0,1,11.63-68.1c8.19-28,20.2-54.2,37.42-77.87,13-17.94,28.48-33.43,47.23-45.45A130.9,130.9,0,0,1,142.57,2.26,119.31,119.31,0,0,1,178,.64c25.43,2.64,47.81,12.65,67.9,28.13,18.56,14.3,33.38,32,45.62,51.82,14,22.71,23.8,47.17,30.43,73a301.26,301.26,0,0,1,7.44,40.09A341.54,341.54,0,0,1,331.56,235.09Z" style="fill:#fff"/><path d="M283.43,234.37a264.6,264.6,0,0,1-11.65,76.8c-6.07,19.62-14.41,37.94-25.78,54.45-9.48,13.77-20.59,25.56-34,34.51a85.07,85.07,0,0,1-31.34,13.22c-17.6,3.4-34.56.85-50.84-7.26-12.57-6.26-23.45-15.22-33.07-26.11C84.17,365.75,74.55,349.27,67,331.22a240,240,0,0,1-14.69-50.93,271.67,271.67,0,0,1-3.71-31.72,288.41,288.41,0,0,1-.08-32.21,267.77,267.77,0,0,1,8.25-53.86c5.82-22.15,14.34-42.87,26.56-61.58C92.61,86.73,103.56,74.48,116.87,65a87.58,87.58,0,0,1,32.44-14.74,76,76,0,0,1,25.11-1.29c18,2.09,33.93,10,48.18,22.25,13.18,11.32,23.69,25.27,32.38,41a221.41,221.41,0,0,1,21.6,57.69,264.47,264.47,0,0,1,5.28,31.71A302.88,302.88,0,0,1,283.43,234.37Z" style="fill:#000002"/><path d="M24.48,232.06c6.62,0,13.24,0,19.86,0,1,0,1.19.28,1.21,1.21.11,5,.18,10,.48,15q.59,9.59,1.8,19.11a256.19,256.19,0,0,0,10.4,47.09A219.67,219.67,0,0,0,69,341.56a177.88,177.88,0,0,0,20.4,33.24q3.9,5,8.26,9.59a119.42,119.42,0,0,0,21.59,18.22,88.87,88.87,0,0,0,31.27,12.91,79.62,79.62,0,0,0,11.12,1.34c15.88.9,30.61-3,44.48-10.51a106.39,106.39,0,0,0,21-15.24c11.81-10.83,21.24-23.49,29.12-37.36a216.79,216.79,0,0,0,20-48.74,260.68,260.68,0,0,0,6.57-30.52q1.32-8.42,2-16.92.63-7.56,1-15.13c.15-3.11.15-6.21.17-9.32,0-.83.24-1.08,1.08-1.08q20.1,0,40.2,0c.86,0,1.08.28,1.06,1.1-.19,7.08-.38,14.16-.88,21.23q-.58,8.16-1.55,16.27c-.73,6.19-1.71,12.36-2.85,18.49a290.74,290.74,0,0,1-10.47,40.26,257.54,257.54,0,0,1-15.4,36.26,219.5,219.5,0,0,1-24.3,37.28c-3.47,4.26-7.15,8.35-11,12.31a161.38,161.38,0,0,1-27,22.57,132,132,0,0,1-32.23,15.71,121.3,121.3,0,0,1-22.19,5,114.53,114.53,0,0,1-19.67.85,118,118,0,0,1-28.28-4.69,134,134,0,0,1-38.47-18.56,157.64,157.64,0,0,1-17-13.66,193.85,193.85,0,0,1-32.3-38.87,245.24,245.24,0,0,1-22.25-44.49,281.23,281.23,0,0,1-11.31-37.2q-2.92-12.54-4.7-25.31c-.92-6.61-1.69-13.24-2.18-19.91-.31-4.16-.52-8.33-.74-12.51-.19-3.54-.07-7.09-.22-10.63-.05-1.13.22-1.49,1.42-1.48C11.32,232.09,17.9,232.06,24.48,232.06Z" style="fill:#2c3e6d"/><path d="M307.13,231.11c-6.62,0-13.24,0-19.86,0-1,0-1.27-.26-1.27-1.25a237.86,237.86,0,0,0-1.27-26.15c-3.16-31.38-11-61.43-25.74-89.47-8.25-15.67-18.43-29.93-31.5-42C215.51,61.21,202,52.86,186,48.68a78.81,78.81,0,0,0-30.58-1.92C138.29,49,123.38,56.37,110,67.15,95.89,78.57,84.91,92.66,75.88,108.34c-11.19,19.43-18.71,40.27-23.66,62.08a262,262,0,0,0-5.09,31c-.76,7.33-1.32,14.68-1.45,22.06,0,2.23-.13,4.46-.14,6.69,0,.71-.18,1-.93,1q-20.16,0-40.32,0c-.86,0-1-.34-1-1.06,0-7.66.36-15.3.94-22.94q1-13.29,3.14-26.45a289.9,289.9,0,0,1,9.38-40c7.42-23.81,17.73-46.26,31.86-66.88,11.76-17.17,25.67-32.32,42.57-44.6C106.26,18.3,122.73,10.44,141,6.5a117.17,117.17,0,0,1,22.64-2.6c22.78-.41,43.87,5.54,63.55,16.8,17.05,9.76,31.49,22.62,44,37.66,18.06,21.67,31,46.19,40.36,72.67a287.92,287.92,0,0,1,12.66,50c1.51,9.32,2.55,18.7,3.23,28.13.5,7,.62,14.09.83,21.14,0,1-.57.84-1.16.84Z" style="fill:#c52d2c"/><path d="M154.17,110.52c.3,2-.73,3.5-1.91,5.15a6.12,6.12,0,0,1-.07-.86c0-.55-.39-.49-.75-.52s-.67.12-.67.6-.09,1-.07,1.43c.13,3.31-2.12,5.59-3.62,8.14-6.76,11.47-13.62,22.88-20.44,34.3-.19.31-.39.6-.65,1a43.83,43.83,0,0,0-6.12-5.39,18.65,18.65,0,0,0-7.62-3.55,7.21,7.21,0,0,0-3.3.27c-2.09.61-2.22,2.44-2.42,4.13-.46,4-.73,8-1.24,12-.73,5.6-1.84,11.09-5,15.91a3,3,0,0,1-1,1.19A3.29,3.29,0,0,0,95.46,182a4.13,4.13,0,0,0-3.78,3c-.25.82-.47,1.12-1.45.92a8.42,8.42,0,0,0-4,.09,4.47,4.47,0,0,0-3.11,3.2c-.2.61-.39.81-1.07.63-3.55-.92-5.66.05-7.32,3.31a.66.66,0,0,1-.72.42,13,13,0,0,0-2.49.25,4.67,4.67,0,0,0-3.63,5.93c.64,2.47.6,4.37-1.34,6.22a5,5,0,0,0-1.2,3.68,1.69,1.69,0,0,1-1.7,1.94,29.16,29.16,0,0,1-8.08.37c-1.7-.25-2.6.33-3,1.78a3.34,3.34,0,0,0,1.4,3.79,49.86,49.86,0,0,0,12,4.22,1.62,1.62,0,0,1,1.32,1c2.09,4.49,5,8.26,9.62,10.37.77.34.83,1.12,1.23,1.69,1.37,1.95,1.06,3.62-.19,5.69-8.5,14-16.84,28.1-25.23,42.16a5.46,5.46,0,0,1-.43.59c-.52-3.08-1-5.94-1.49-8.81q-1.56-9.8-2.34-19.67c-.54-6.71-.79-13.44-.89-20.17-.06-4.51,0-9,.17-13.5.17-6.24.66-12.47,1.3-18.7a270.74,270.74,0,0,1,4.86-30.37c.24-1.09.57-2.16.71-3.26a6.09,6.09,0,0,1,3-4.52c9.78-6.66,19.48-13.45,29.2-20.2l55.86-38.81c.3-.21.6-.39.9-.59.61-.11.95.36,1.34.66a26,26,0,0,0,8.22,4.45C153.55,109.94,154,110,154.17,110.52Z" style="fill:#298343"/><path d="M154.17,110.52a29.79,29.79,0,0,1-10.59-5.82c-.5-1-1.06-.55-1.7-.11Q99.49,134.05,57.07,163.5c-.23.16-.45.33-.7.47a.59.59,0,0,1-.43.1c-.22-.11-.1-.31,0-.5a256.22,256.22,0,0,1,8.88-27.33q2.37-6,5.06-11.85a2.18,2.18,0,0,1,1.43-1.27q33.42-11.58,66.83-23.19c.65-.22,1.47-.37.48-1.23a1.62,1.62,0,0,1-.8-.85,27.83,27.83,0,0,1-3.3-10.27,2,2,0,0,1,.22-1.5v-1c-.61-1.62-.15-3.23.07-4.82.4-2.79.44-2.77-2.19-3.89-6.27-2.66-12.52-5.37-18.79-8-.4-.17-.83-.31-1-.76a2.12,2.12,0,0,1,1.34-1,4.59,4.59,0,0,1,2.57.82c5.88,2.57,11.77,5.11,17.65,7.69,1.55.68,1.54.66,2.25-.91a25.73,25.73,0,0,1,4.33-7c.64-.69.52-1.16-.07-1.82-2.57-2.89-5.37-5.56-8-8.42-.34-.38-.84-.66-.81-1.26a3.33,3.33,0,0,1,1.75-.86,1.68,1.68,0,0,0,.75,1.3c2.74,2.61,5.14,5.55,8,8,.48.42.77.57,1.27.08a21,21,0,0,1,5.32-3.62c.88-.45.9-.9.55-1.68-1.09-2.43-2.18-4.87-3.18-7.34a2.19,2.19,0,0,1-.29-1,3.37,3.37,0,0,1,1.5-.38c1,1,1.29,2.45,1.89,3.7.69,1.43,1.26,2.92,1.9,4.38.3.69.7,1,1.49.72a22.12,22.12,0,0,1,6.78-1.28c.84,0,1-.52,1-1.19q0-3.34,0-6.69a2.39,2.39,0,0,1,.3-1.61c.48-.31,1,.07,1.42,0,.47.4.37.94.37,1.45,0,2.23,0,4.46,0,6.69,0,1,.3,1.32,1.28,1.4A20,20,0,0,1,169.81,59a1.38,1.38,0,0,0,2-.69c1.64-2.73,3.2-5.51,4.86-8.23a2.73,2.73,0,0,1,.89-1.1c.57-.34,1,.15,1.49.26.17.54-.22.9-.46,1.29-1.7,2.93-3.41,5.85-5.05,8.81-.38.67-.37,1,.37,1.36a24,24,0,0,1,5.49,3.79c.62.57,1,.54,1.66-.08,3.51-3.47,6.89-7.08,10.33-10.61a2.43,2.43,0,0,1,1.35-.93,2.83,2.83,0,0,1,1.37.51c0,.61-.47.9-.82,1.25-2.81,2.83-5.62,5.66-8.46,8.45-.92.9-1.64,2-2.58,2.83-.56.53-.49,1,0,1.53a27.45,27.45,0,0,1,4.24,6.89c.5,1.09.6,1.16,1.69.6,6.84-3.44,13.78-6.68,20.6-10.16a11,11,0,0,1,4.07-1.58l1.09.86c.11.65-.43.81-.83,1-5.72,2.6-11.23,5.65-16.94,8.28-2.63,1.22-5.2,2.6-7.81,3.86a1,1,0,0,0-.58,1.26c.25,1.12.41,2.27.58,3.41a4.12,4.12,0,0,1-.08,2.12,1.77,1.77,0,0,0-.05,1.09,3,3,0,0,1,.23,1.87A27.53,27.53,0,0,1,187,93.83a2.26,2.26,0,0,1-.73,1.07l-.45.91a1,1,0,0,1-.14.9,23.3,23.3,0,0,1-3.1,4.88c-.2.23-.37.52-.74.52A28.92,28.92,0,0,1,168,110.74a5,5,0,0,1-3.79.58l-1.43.14a3.57,3.57,0,0,1-2.44.3c-1.42-.09-2.84-.07-4.25-.29.15-.34.11-.58-.32-.65Z" style="fill:#f8e81d"/><path d="M245.87,233.78l9.39,14.83q11.46,18.12,22.93,36.21a2.43,2.43,0,0,1,.41,2c-4.77,23.07-12.34,45.12-23.92,65.7-.18.32-.35.63-.54.94,0,.05-.1.09-.26.21-.55-1.86-1.13-3.67-1.6-5.5-.2-.79-.47-1.09-1.34-1.07-5.14.11-10.28.13-15.43.23a1.26,1.26,0,0,1-1.38-.79c-1.35-2.78-2.73-5.56-4.15-8.31a1.37,1.37,0,0,1,.15-1.61c2.75-4.19,5.45-8.42,8.23-12.59a1.16,1.16,0,0,0-.2-1.78c-2.49-2.47-4.91-5-7.37-7.51a1.44,1.44,0,0,1-.5-1.45c1.75-9.75,3.41-19.52,5.2-29.26C238.54,267.26,241.88,250.57,245.87,233.78Z" style="fill:#fefefe"/><path d="M95.54,309.38c.07.54-.22.66-.7.72-1.1.13-2.19.37-3.3.5a5,5,0,0,0-2.73,1.24c-2.8,2.34-5.52,4.79-8.5,6.9-.52.37-.17.63-.07.87,1.58,4.07,3.16,8.13,4.8,12.17,1.49,3.66,1.24,3.47-.81,6.83-1.83,3-4.36,3.8-7.46,4a20.66,20.66,0,0,0-3.77.56c-1.06.28-1.47-.16-1.87-1a229.46,229.46,0,0,1-12-30.62q-3.81-12.3-6.38-24.9a3.91,3.91,0,0,1,.4-3q11.22-18.54,22.34-37.14c1.24-2.08,2.48-4.17,3.76-6.23.19-.31.24-.86.71-.86s.61.52.77.93a129.83,129.83,0,0,1,4,12.69c2.85,10.51,5,21.17,6.89,31.88,1.27,7.16,2.47,14.33,3.45,21.54C95.2,307.42,95.38,308.4,95.54,309.38Z" style="fill:#fcfcfc"/><path d="M203.87,304.65c0-2.51,0-5,0-7.54a1.09,1.09,0,0,0-.89-1.27c-2.43-.77-4.82-1.66-7.24-2.44-.69-.22-.75-.47-.47-1.09,7.27-16.33,14.58-32.64,24-47.89,1.44-2.34,3-4.59,4.68-6.79a2.32,2.32,0,0,1,1.65-1c3.55-.54,7.09-1.07,10.62-1.67,1-.17,1.06.35,1.14,1a62.15,62.15,0,0,1,.39,8.84,287.54,287.54,0,0,1-2.9,31.41c-1.59,11.92-3.53,23.79-5.56,35.64a2.08,2.08,0,0,1-1,1.62q-6.74,4.22-13.41,8.52a1,1,0,0,1-1.51-.15c-2.94-2.81-5.92-5.58-8.91-8.33a1.73,1.73,0,0,1-.61-1.45C203.88,309.59,203.87,307.12,203.87,304.65Z" style="fill:#e4ab56"/><path d="M181.79,102.11a30.86,30.86,0,0,0,4-6.3L246.38,118c4.7,1.72,9.39,3.45,14.1,5.15a2,2,0,0,1,1.25,1.13,229.77,229.77,0,0,1,13.7,38.43.71.71,0,0,1,0,.24c-.35,0-.56-.24-.8-.4q-46.29-29.87-92.34-60.08A5.72,5.72,0,0,1,181.79,102.11Z" style="fill:#fefefe"/><path d="M132.57,294.2c-4.41.75-8.68,1.51-13,2.18-.82.13-1,.47-1.1,1.21-.22,2.5-.52,5-.75,7.49-.06.78-.29,1.14-1.16,1.28-5.12.77-10.22,1.61-15.33,2.48-.77.13-.92-.2-1.06-.84-1.92-8.34-3.57-16.74-5.18-25.14-1.27-6.61-2.68-13.19-3.7-19.84a148.51,148.51,0,0,1-1.53-16.3c-.11-2.79-.84-5.52-.82-8.32a13.49,13.49,0,0,1,.28-3.8A1.78,1.78,0,0,1,91,233.13a15.67,15.67,0,0,1,4.85.32l-5.47,5,8.37.77a12.8,12.8,0,0,0,2.38.19c1.9-.2,2.74.79,3.57,2.37q13.53,25.6,27.2,51.13C132.11,293.29,132.3,293.68,132.57,294.2Z" style="fill:#e4ab56"/><path d="M107.77,240l25.2,2.27c3.18.28,6.35.55,9.53.79.76.06,1.2.23,1.37,1.1a9.28,9.28,0,0,0,2.67,4.31c1.4,1.53,2.86,3,4.26,4.53a8.16,8.16,0,0,1,2.18,5.64c.13,7.42-1.11,14.68-2.54,21.91-.68,3.43-1.53,6.83-2.25,10.25a1,1,0,0,1-1,.92q-6.08,1-12.12,2.08c-.73.13-1.05-.16-1.39-.74-3.18-5.56-5.88-11.37-8.64-17.14q-8.34-17.35-16.73-34.67C108.15,240.86,108,240.47,107.77,240Z" style="fill:#fefefe"/><path d="M186.22,94.9a29,29,0,0,0,2-9.82l24.87-.51c7.13-.15,14.27-.27,21.4-.49a3.21,3.21,0,0,1,2.83,1.3,167.94,167.94,0,0,1,18.53,27.25c1.66,3,3.24,6.1,4.85,9.48l-2.32-.81L186.79,95.07Z" style="fill:#c52d2c"/><path d="M134.69,86.08a28.14,28.14,0,0,0,3.88,12.62l-28.22,9.77-37.8,13.11a2.67,2.67,0,0,1-1.36.34c-.17-.37.11-.62.23-.88a174.21,174.21,0,0,1,21-33.32,2.24,2.24,0,0,1,1.91-.92q10.81-.12,21.64-.32C122.18,86.37,128.44,86.22,134.69,86.08Z" style="fill:#c52d2c"/><path d="M215.68,238.24c-4.8,12.57-9.79,24.85-15,37.05-2.14,5-4.35,10.06-6.51,15.09a1.51,1.51,0,0,1-1.34,1.1c-3,.45-5.88,1-8.81,1.54-.66.12-.9,0-1-.7-1.12-8.53-2.28-17.05-3-25.62a83.82,83.82,0,0,1-.32-10.39,8.82,8.82,0,0,1,.94-3.3c1.34-3,2.83-6,3.17-9.32,0-.43.29-.58.71-.64l18.51-2.87,11.55-1.8Z" style="fill:#fefefe"/><path d="M166.84,237.63a66.75,66.75,0,0,0-8.78-3.91c-.36-.13-.44-.35-.44-.73a7.83,7.83,0,0,0-2.63-5.68.91.91,0,0,0-1.42-.12,21.48,21.48,0,0,0-3.4,3.34,1.4,1.4,0,0,1-1.55.52A94,94,0,0,0,123,229.37a139.52,139.52,0,0,0-17.52,2.18,10.18,10.18,0,0,1-1.15.07l1.8-1.69q10.51-9.84,21-19.7a5.56,5.56,0,0,1,2.23-1.29c12.61-4,24.4-2.39,35.36,5.1a2.31,2.31,0,0,1,1.16,2c.28,6.77.64,13.53,1,20.3C166.85,236.73,166.84,237.12,166.84,237.63Z" style="fill:#fefefe"/><path d="M225.88,226.59a120.61,120.61,0,0,0-17.41-1c-14.13.36-27.32,3.91-39.26,11.66-.2.13-.41.23-.79.45-.14-2.42-.28-4.71-.39-7-.26-4.9-.48-9.79-.75-14.69a1.72,1.72,0,0,1,.77-1.69c5.83-4.37,12.21-7.42,19.52-8.29a40.83,40.83,0,0,1,19.64,2.81,2.47,2.47,0,0,1,.68.48c6.26,5.56,12.59,11,18.51,17C226.43,226.77,226.14,226.66,225.88,226.59Z" style="fill:#fefefe"/><path d="M134.32,187c-1,1.14-2,2.2-2.95,3.25-8.79,9.46-18.42,17.85-30.17,23.52a72.76,72.76,0,0,1-9.62,3.89,1.63,1.63,0,0,1-1.37.07c-2.91-1.49-6-1.41-9.11-1l-.85.08a7.55,7.55,0,0,0,2.1-3.91c.05-.31.24-.33.52-.29,3.55.51,4.6-1.23,5-4.78,0-.38,0-.76.07-1.35a5,5,0,0,0,2.45,1.67,3.56,3.56,0,0,0,4-1.85,12.87,12.87,0,0,0,1.32-5.05c0-.3-.06-.63.19-.95l.42.13c2.23.88,3.85.05,4.21-2.27a29.16,29.16,0,0,0-.32-9.86c-.08-.4-.24-.74.12-1.11,4-4,5.6-9.17,6.77-14.51a73.21,73.21,0,0,0,1.32-9.21,4.27,4.27,0,0,1,.32-1.61C112.8,174.73,121.65,182.7,134.32,187Z" style="fill:#706f6e"/><path d="M140.5,358.42a38.56,38.56,0,0,1,29.36-10.34A39.74,39.74,0,0,1,206.43,379a36.75,36.75,0,0,1,1,7.45c.15,5.22.23,10.45.34,15.67,0,.5.08,1-.52,1.32a91.49,91.49,0,0,1-15,7c.32-1.51.7-2.91.92-4.33.76-4.81.36-9.64.14-14.45a96.77,96.77,0,0,0-.58-10.62,33.71,33.71,0,0,0-51.91-22.34C140.5,358.77,140.44,358.65,140.5,358.42Z" style="fill:#b3b3b3"/><path d="M147.71,158.58q-1-9.39-2-18.77c-.06-.66-.24-.89-.93-.83s-.62.48-.57,1q1.46,13.67,2.87,27.33a15.88,15.88,0,0,1-.12,2.38c-.25,5.27-.3,10.51,1.78,15.61-1.49-.66-1.53-.66-1.68-2-.62-5.51-1.21-11-1.82-16.51q-1-9.45-2.06-18.89l-.21-2c-.05-.49-.06-.88-.83-.77s-.73.37-.67.91q.78,6.94,1.55,13.9c.67,6.17,1.38,12.35,2,18.53.42,4.21.68,8.45,1.85,12.55a1.32,1.32,0,0,1,0,1.05A4.35,4.35,0,0,1,144,188c-.42-6.19-1.15-12.37-1.75-18.56q-.86-8.73-1.7-17.48c0-.47.12-1-.78-1s-.72.66-.67,1.18q.72,7.68,1.47,15.35c.52,5.31,1.12,10.62,1.57,15.93.59,7.11,1.21,14.2,4.52,20.83a43.11,43.11,0,0,0-10.49.29,53,53,0,0,0-11.91,3.33,4.19,4.19,0,0,0-1.24.91l-16.47,15c-.26.24-.54.45-1,.85a47.85,47.85,0,0,1,2.07-5.51,68.33,68.33,0,0,0,3-7.13c.13-.45.48-.61.81-.83,9.76-6.31,17.94-14.39,25.58-23.06,1.34-1.51,1.52-3.46,1.47-5.4a20.68,20.68,0,0,0-2.08-8,50.63,50.63,0,0,0-9.1-13.51c-.37-.4-.51-.68-.19-1.22q11.48-19.17,22.9-38.35a5,5,0,0,1,.39-.43c-.25,5.13-.79,10-.8,14.93-.26,1,.11,2.09-.21,3.12-.5-1-.29-2.14-.43-3.2a36.89,36.89,0,0,1-.28-3.94c0-.67-.11-1.06-.92-.92-.61.1-1.12,0-1,1q.54,6.26.91,12.52c.21,3.62.78,7.22.52,10.86A18.69,18.69,0,0,0,148,158C148,158.2,148.16,158.56,147.71,158.58Z" style="fill:#fefefe"/><path d="M205,156.65l.71.39c4,2.14,7.73,1.67,11.24-1.09a17.21,17.21,0,0,0,3.89-4.19c.63-1,1.11-.88,2-.32,2.33,1.52,4.69,3,7.09,4.41.87.51.94.85.37,1.69q-11.28,16.52-22.51,33.08c-.58.85-1.21,1.68-1.73,2.57-.39.67-.72.62-1.31.24q-7.8-5.09-15.65-10.11c-.68-.44-.67-.74-.27-1.37q7.8-12.31,15.56-24.64C204.46,157.06,204.53,156.7,205,156.65Z" style="fill:#b3b3b3"/><path d="M165.83,256.69a5.09,5.09,0,0,1,4,1.88,36,36,0,0,1,6.48,12,136.72,136.72,0,0,1,5.54,23.2c.11.66,0,1-.72,1.2q-7.39,2.36-14.77,4.77a.92.92,0,0,1-1.32-.49c-1.61-2.75-3.3-5.45-4.93-8.19a1.18,1.18,0,0,0-1.4-.71c-1.69.27-3.41.39-5.11.58-.69.08-1,0-.84-.9,1.93-9.51,3.8-19,6.33-28.42C160.08,258.12,161.94,256.71,165.83,256.69Z" style="fill:#e4ac56"/><path d="M127.79,371.81c-.4,1.12-.81,2.23-1.21,3.35-.47.1-.73-.24-1-.53a36.56,36.56,0,0,1-9.49-20.12,33.62,33.62,0,0,1,4.15-20.85c4.43-7.92,10.89-13.73,18.71-18.15a66.83,66.83,0,0,1,24.92-7.85c1.1-.14,2.22-.16,3.33-.28a2.24,2.24,0,0,1,1.72.3,1.18,1.18,0,0,0,1.1.53c3.56.13,7.13.28,10.69.45a1.3,1.3,0,0,0,1.24-.5c1.54-.36,3,.24,4.43.53a63.46,63.46,0,0,1,16.81,5.81,16.58,16.58,0,0,1,2.39,1.55c2.52,2.32,5.07,4.61,7.54,7,.63.61,1.13.71,1.81.21.57-.31.89.14,1.21.45,6.32,6.23,10.59,13.56,11.73,22.47s-1.26,17.21-6.43,24.63a46.32,46.32,0,0,1-10.19,10.35c-.42.32-.9,1.13-1.57.25l-.51-2.88a7.25,7.25,0,0,1,1.74-1.62,39.14,39.14,0,0,0,8.94-10.82,31.3,31.3,0,0,0,4.1-14.69c.23-9.78-3.58-17.82-10.24-24.69a50.48,50.48,0,0,0-20.16-12.45,64,64,0,0,0-15.14-3.33,67.5,67.5,0,0,0-23.34,1.92,54.34,54.34,0,0,0-17.89,8.09c-6.64,4.67-12,10.45-15,18.17a30.79,30.79,0,0,0-2,13.82,33.72,33.72,0,0,0,7,17.64A2.44,2.44,0,0,1,127.79,371.81Z" style="fill:#9f9e9d"/><path d="M127.79,371.81a33.59,33.59,0,0,1-7.18-13.95,31.61,31.61,0,0,1-.76-10.14,33,33,0,0,1,7-17.53,44.07,44.07,0,0,1,8.58-8.4,55,55,0,0,1,18.07-8.89,63.67,63.67,0,0,1,11.05-2.15,70.07,70.07,0,0,1,10.83-.41,65.16,65.16,0,0,1,14.73,2.44,57.63,57.63,0,0,1,16.68,7.7c6.34,4.36,11.48,9.77,14.67,16.87a32.07,32.07,0,0,1-.82,27.92,40.17,40.17,0,0,1-5.66,8.07,56.38,56.38,0,0,1-5.11,4.8,1,1,0,0,1-.72.37c-.31-1.11-.61-2.23-.92-3.35a37.42,37.42,0,0,1,3.41-3.49,31.44,31.44,0,0,0,8.59-18.05,28.78,28.78,0,0,0-4.33-19c-4.88-7.83-11.87-13.11-20.23-16.71a57,57,0,0,0-14.59-4.08,65.44,65.44,0,0,0-14.06-.43,58.26,58.26,0,0,0-12.91,2.35,50.2,50.2,0,0,0-18.5,9.94,34.57,34.57,0,0,0-10.78,15.65c-2.61,8-1.63,15.74,2.21,23.14a21.46,21.46,0,0,0,1.59,2.53,3.25,3.25,0,0,1,.59,1.41A23.74,23.74,0,0,1,127.79,371.81Z" style="fill:#a6a4a3"/><path d="M188.25,84c-.29-2-.54-4.09-.9-6.12-.1-.59.22-.67.56-.84q11.67-5.72,23.34-11.45a8.18,8.18,0,0,0,2.66-1.51,48.2,48.2,0,0,1,6.52,4.77,123.25,123.25,0,0,1,14.78,14.21Z" style="fill:#fefefe"/><path d="M129.25,368.46a29.94,29.94,0,0,1-5.4-11.53c-1.91-8.75-.12-16.72,4.94-24.07a42.87,42.87,0,0,1,14.69-12.94,56.31,56.31,0,0,1,17.89-6.2,60.5,60.5,0,0,1,14.84-.73,58.68,58.68,0,0,1,23.24,6.35A44.29,44.29,0,0,1,212.1,329a31.26,31.26,0,0,1,8.6,19.55,29.85,29.85,0,0,1-2.82,14.65,30.25,30.25,0,0,1-5.81,8.51,16.87,16.87,0,0,1-3.81,3.49l-1.07-3.08a2.66,2.66,0,0,1,.84-1.14,29.31,29.31,0,0,0,8.86-17.86,26.57,26.57,0,0,0-2.52-14.43c-3.52-7.39-9.3-12.56-16.34-16.42a51.75,51.75,0,0,0-19.77-6,57.48,57.48,0,0,0-25.78,3.05,43.21,43.21,0,0,0-16.23,10.09,30.33,30.33,0,0,0-8.93,16.58,27,27,0,0,0,3.21,17.89,2.79,2.79,0,0,1,.57,1.54A24.39,24.39,0,0,1,129.25,368.46Z" style="fill:#aba9a9"/><path d="M131.1,365.34a27.17,27.17,0,0,1-2.13-26,32.85,32.85,0,0,1,6.9-10.06,37.26,37.26,0,0,1,7.85-6.16,52.9,52.9,0,0,1,13.6-5.67,59.35,59.35,0,0,1,18-1.8A56.55,56.55,0,0,1,191,318.77a47.42,47.42,0,0,1,14.12,7.79c5.78,4.67,9.92,10.53,11.58,17.85a26.55,26.55,0,0,1-.5,13.64,31.58,31.58,0,0,1-8.36,13.52,6.45,6.45,0,0,1-.66.51l-1.32-2.91a2.54,2.54,0,0,1,.79-1.17c4.4-5.15,7-11,6.94-17.88a25.63,25.63,0,0,0-5.88-16c-5-6.28-11.52-10.31-19.06-12.84a48.21,48.21,0,0,0-12.27-2.49,56,56,0,0,0-13.55.62,46.71,46.71,0,0,0-19.9,8.29,31.24,31.24,0,0,0-9.51,10.9,24.83,24.83,0,0,0-.61,22.37,3.44,3.44,0,0,1,.42,1.24Z" style="fill:#b2b0af"/><path d="M222.93,218.76a3.59,3.59,0,0,1-1.31-.94q-6.1-5.38-12.17-10.78a4,4,0,0,0-1.22-.73c-7.26-2.76-14.71-4-22.46-2.75a6.6,6.6,0,0,1-.89,0c2.25-5.52,4.29-11.05,3.44-17.22.55,0,.85.32,1.18.54,5.25,3.38,10.5,6.75,15.72,10.19.85.56,1.18.4,1.7-.39,2.32-3.52,4.73-7,7.07-10.49.43-.64.75-.73,1.33-.21,1.28,1.14,1.89,2.74,2.86,4.09.24.34,0,.63-.18.87-2.4,3.76-2.06,7.55-.38,11.48a109.82,109.82,0,0,1,4.57,11.38A13.57,13.57,0,0,1,222.93,218.76Z" style="fill:#fefefe"/><path d="M112.75,67.6q11.11,4.75,22.23,9.5c.51.21.72.41.55,1.05a26.69,26.69,0,0,0-.84,7L94,85.79A122.76,122.76,0,0,1,112.75,67.6Z" style="fill:#fefefe"/><path d="M115.42,330.34c-8.45,1.4-16.81,2.79-25.17,4.15-1,.17-2.27.87-3.07.27s-.87-1.82-1.25-2.78c-1.51-3.8-3-7.6-4.52-11.4-.3-.74-.44-1.09.66-1.25,8.85-1.34,17.69-2.76,26.53-4.16.43-.07.81-.21,1.05.41C111.55,320.49,113.48,325.39,115.42,330.34Z" style="fill:#fefefe"/><path d="M148,292.66c-.29,2.43-.55,4.67-.83,6.91-.37,3-.77,6-1.11,9a1.28,1.28,0,0,1-.85,1.12c-3.65,1.76-7.29,3.54-10.9,5.38a1.33,1.33,0,0,1-1.59-.17c-4.15-2.9-8.31-5.77-12.44-8.67-.51-.35-1-.71-1.65-.05.31-2.85.6-5.5.87-8.15,0-.51.33-.59.78-.66,6.08-1,12.15-2,18.23-3.08Z" style="fill:#fefefe"/><path d="M133.24,362.23a17.81,17.81,0,0,1-2.51-6.5,25,25,0,0,1,2.33-17.11,33.62,33.62,0,0,1,12.22-12.89,47.81,47.81,0,0,1,16.19-6.39,36.82,36.82,0,0,1,7.18-.89c2,0,4-.1,6,0a48.08,48.08,0,0,1,11.7,1.84,44,44,0,0,1,15.22,7.45c5.84,4.51,10.07,10.13,11.76,17.42a23.6,23.6,0,0,1-.2,11.42,28.21,28.21,0,0,1-6.84,12.25,5.81,5.81,0,0,1-.46.38l-1.67-3.1c.76-1.36,1.79-2.53,2.56-3.88A23.36,23.36,0,0,0,210,350.92c.13-6.45-2.3-12-6.53-16.75-5-5.69-11.42-9.07-18.63-11.13a48.27,48.27,0,0,0-16.34-1.59,42.52,42.52,0,0,0-23.05,8.06c-5.24,3.86-9.13,8.77-10.85,15.16a20.37,20.37,0,0,0-.34,9.6,14,14,0,0,0,1.49,4.88Z" style="fill:#b8b6b5"/><path d="M135.77,359.15c-.87-.22-1-1-1.11-1.68a28.07,28.07,0,0,1-1.1-7.62,23.88,23.88,0,0,1,3.25-11.31,30.7,30.7,0,0,1,10-10.37,43.8,43.8,0,0,1,16.4-6.41,54.23,54.23,0,0,1,11.86-.65,44.92,44.92,0,0,1,15.34,3.5,35.34,35.34,0,0,1,9.29,5.47c5.64,4.7,9.67,10.31,10.49,17.87.75,6.84-1.43,12.72-5.63,18-.06.08-.21.09-.32.14l-1.82-2.83c.81-1.59,1.78-3.09,2.49-4.75A20.13,20.13,0,0,0,206.2,347c-1.27-7.74-6-13-12.34-17.08a35.3,35.3,0,0,0-11.31-4.73,38.62,38.62,0,0,0-8.5-1.19,50.33,50.33,0,0,0-9.18.48C156.35,326,148.75,329.37,143,336a21.46,21.46,0,0,0-5.18,18.57c.12.67.41,1.29.59,1.95Z" style="fill:#bdbdbc"/><path d="M81,230.89a15.86,15.86,0,0,1-7.39-1.62,9.78,9.78,0,0,1-4.74-5,72.67,72.67,0,0,1-3.23-9.6,2,2,0,0,1,0-1.41c.92-1.83.92-3.86,1.39-5.78.31-1.27,1.43-2,2.19-2.91.23-.28.5.05.73.17,2.19,1.09,3.24.94,4.85-.86.47-.53.73-.43,1.08,0a2.33,2.33,0,0,1,.32,2.37,11.34,11.34,0,0,1-2.8,4,1.36,1.36,0,0,0-.49,1.35,2.67,2.67,0,0,1-.62,2.11c-.2.26-.56.46-.25.91a.87.87,0,0,0,.9.42,3.84,3.84,0,0,1,.48,0c1.35,0,2.48.39,3,1.84a13.78,13.78,0,0,0,1.1,2c.71,1.23,1.18,1.36,2.36.6a11.16,11.16,0,0,1,4.44-1.65,6.13,6.13,0,0,1,6.36,2.84A7,7,0,0,1,89.49,228c-1.95,2-4.49,2.6-7.15,2.89A11.43,11.43,0,0,1,81,230.89Z" style="fill:#e4ac56"/><path d="M212.82,63.21,189,74.89c-2,1-2,1-3-.91a28.89,28.89,0,0,0-4.33-6.7c-.43-.47-.44-.75,0-1.25,4-4.33,8.26-8.42,12.38-12.63A89.46,89.46,0,0,1,212.82,63.21Z" style="fill:#fefefe"/><path d="M138.39,356.52c-.9-.4-.84-1.34-.94-2a21.86,21.86,0,0,1,4.05-17.1A32.43,32.43,0,0,1,155.17,327a42.59,42.59,0,0,1,20.26-3.22,41,41,0,0,1,15.38,4.11,32.14,32.14,0,0,1,10.43,7.95,21.25,21.25,0,0,1,5.31,11.25,20.7,20.7,0,0,1-1.45,11.65,37.86,37.86,0,0,1-1.83,3.59,1.94,1.94,0,0,1-.89.92l-2.06-2.67a2.14,2.14,0,0,1,.47-1.21,18.59,18.59,0,0,0,2.31-8.93,19.74,19.74,0,0,0-5.83-13.85c-4.67-5-10.53-7.75-17.13-9.12A39.05,39.05,0,0,0,159,328.85a28.36,28.36,0,0,0-14.72,10.87,19.25,19.25,0,0,0-3,13.68,5.7,5.7,0,0,1,0,.71Z" style="fill:#c2c1c1"/><path d="M168.93,307.68a60.72,60.72,0,0,0-13.16,1.73,65.54,65.54,0,0,0-12.05,4,52.75,52.75,0,0,0-17.94,12.95A36.34,36.34,0,0,0,117,343.24a33.33,33.33,0,0,0-.27,12.9,34.94,34.94,0,0,0,5.11,13,33.12,33.12,0,0,0,4.77,6c-.31,1.2-.63,2.39-1,3.59-.57.11-.87-.33-1.19-.66-5.31-5.57-9.31-11.9-11.11-19.48A35.18,35.18,0,0,1,114.92,337a42.22,42.22,0,0,1,11.79-16.45c1.48-1.28,3-2.48,4.56-3.67.46-.35.91-.82,1.6-.63a1.13,1.13,0,0,0,1.31,0c4-2,8-4,12.06-5.91a1.63,1.63,0,0,0,1-1.46,6.8,6.8,0,0,1,2.52-1,71.45,71.45,0,0,1,16.45-3.11,1.43,1.43,0,0,1,1.13.27A15.78,15.78,0,0,1,168.93,307.68Z" style="fill:#9a9997"/><path d="M180.14,183.83c1.87-5.14,2-10.16,2.06-15.24,0-4.2.39-8.4.52-12.6.18-5.38.39-10.76.58-16.14,0-.48.19-1-.68-1.06s-.69.56-.71,1c-.26,7.73-.54,15.46-.74,23.19,0,1.49-1.27,1.59-2.08,2.25,1.41-4.11,1.56-8.33,1.75-12.6.21-4.58-.39-9.1-.53-13.64-.08-2.83-.32-5.65-.49-8.48a.84.84,0,0,1,.28-.74l4.46,7c3.88,6.14,7.75,12.3,11.67,18.41.59.91.58,1.36-.4,2-2.65,1.66-4.45,4.17-6.17,6.72-.24.35-.44.71-.76,1.23,0-2.28,0-4.36,0-6.45,0-.48.47-1.25-.65-1.27s-.61.75-.62,1.16q-.28,10.05-.46,20.1a5,5,0,0,1-1.22,2.66c-.05-1.11-.43-1.9-.42-2.81q.15-15,.22-29.91c0-.4.27-1-.24-1.17s-1.08-.05-1.08.85c0,4.54-.09,9.09-.12,13.63q-.06,9-.07,18.07a1.65,1.65,0,0,1-.84,1.56C182.36,182.22,181.37,183,180.14,183.83Z" style="fill:#fcfcfc"/><path d="M231.68,184.3a22,22,0,0,1-5.83,9.26c-.5.47-.69.8-.28,1.48a6.15,6.15,0,0,1,.94,2.43,4,4,0,0,0,2.21,3.05c5.39,3.47,6.5,8.58,4.87,14.28a.9.9,0,0,1-.9.76,20,20,0,0,1-8-.76c-.38-.12-.73-.25-.84-.73-.73-3.21-2.29-6.09-3.67-9-1.22-2.59-2.48-5.17-2.7-8.1a6.25,6.25,0,0,1,.38-2.81,28.38,28.38,0,0,1,6.49-9.35c.23-.23.41-.46.79-.14,1.9,1.62,3.84,1,5.78.05Z" style="fill:#e4ab56"/><path d="M141.23,354.11a1.38,1.38,0,0,1-.46-1.06c-.14-3.59-.08-7.13,1.52-10.49,2.74-5.76,7.21-9.66,12.82-12.43a39.73,39.73,0,0,1,35.71,1c5.17,2.92,9.28,7,11.37,12.69a17.81,17.81,0,0,1-1.87,16.79l-2.39-2.64c.34-1.76,1.17-3.37,1.41-5.17a16.88,16.88,0,0,0-4.43-14c-5.14-5.8-11.83-8.45-19.38-9.24a32.63,32.63,0,0,0-21.09,4.58c-5.18,3.18-8.77,7.57-9.9,13.72a15.35,15.35,0,0,0-.14,2.62,2.83,2.83,0,0,1-.29,1.62Z" style="fill:#c9c9c8"/><path d="M132.05,55.7c3.09,3.26,6.17,6.54,9.3,9.76.63.64.59,1,0,1.64a24.49,24.49,0,0,0-4.87,8c-.29.79-.55,1-1.42.65-7-3.09-14-6.12-21-9.18A93.85,93.85,0,0,1,132.05,55.7Z" style="fill:#fefefe"/><path d="M144.11,352.06c-.53-6.08,1.79-11.08,6.09-15.15a29,29,0,0,1,14.54-7.21A33,33,0,0,1,174,329c8.45.65,16.07,3.35,21.64,10.06,4.41,5.33,5.5,11.41,2.87,18a7,7,0,0,1-.55.9l-2.43-2.29a1.42,1.42,0,0,1,0-1.27c1.6-5.73,0-10.61-4-14.78C187,335,181.35,332.83,175,332.13a29.05,29.05,0,0,0-12,1.16c-6.5,2-11.74,5.67-14.34,12.32a11.92,11.92,0,0,0-.72,4.21Z" style="fill:#cfcfce"/><path d="M132.87,316.28a28.5,28.5,0,0,0-4.8,3.5,43.67,43.67,0,0,0-7.75,8.2,37.91,37.91,0,0,0-7.3,17.24A36.17,36.17,0,0,0,119,370.73a43.13,43.13,0,0,0,6.68,8c-.16,1-.33,1.92-.5,2.89s-.65.46-1,.21a16.4,16.4,0,0,1-2.8-2.59,49.24,49.24,0,0,1-8.1-11.32A38.31,38.31,0,0,1,110.4,340c.15-.54.43-1,.63-1.54,1.47-2,2.86-4,4.43-5.91.94-1.15,1.4-2.22.62-3.59-.29-.55,0-1,.29-1.42a53,53,0,0,1,12.89-12.78,1.06,1.06,0,0,1,1.21-.17A13.22,13.22,0,0,1,132.87,316.28Z" style="fill:#949392"/><path d="M209.69,381.39a.63.63,0,0,0,.85-.05c5.61-4.23,10.39-9.2,13.57-15.53a34.5,34.5,0,0,0,3.53-12.13,34,34,0,0,0-4.53-20.55A44.05,44.05,0,0,0,216,324c-.3-.3-.54-.71-1.05-.72a16,16,0,0,1,2.63-1.67c.52-.32.82.09,1.12.38a46,46,0,0,1,7.57,9.51,34.63,34.63,0,0,1,2.08,3.9,1.83,1.83,0,0,1,.24,1.59c-.23,1,.54,1.57.81,2.35.17.48.4.92.6,1.38,2,5,1.86,10.23,1.11,15.42-1.1,7.59-4.67,14.06-9.64,19.82a53.74,53.74,0,0,1-10.24,8.92c-.32.22-.63.5-1.08.37Z" style="fill:#9a9997"/><path d="M156.35,253.62a11.72,11.72,0,0,1-8.21-4.64,3.36,3.36,0,0,0-.93-1.06,4.49,4.49,0,0,1-2.19-5.28c.75-3.33,2.43-6.21,4.07-9.12.23-.41.64-.42,1-.53a25.86,25.86,0,0,0,4.65-1.84c.34-.18.74-.9,1.18-.23a1.54,1.54,0,0,1,.11,2c-.62.78-1.25,1.55-1.82,2.36a12.6,12.6,0,0,0-1.67,3.56c-.15.47-.28,1,.15,1.34,1.36,1,1.07,2.43,1.09,3.77,0,.52-.06,1,.48,1.21a.94.94,0,0,0,1.19-.57,1.28,1.28,0,0,1,1.67-.67,15.07,15.07,0,0,0,1.79.18c1.16.13,2.42.06,2.85,1.57.06.18.34.32.53.45,1.63,1.16,1.83,2.15.79,3.83C161.94,251.82,158.56,253.73,156.35,253.62Z" style="fill:#e4ac56"/><path d="M148,349.82c-.65-1.17-.23-2.32.12-3.43a19.09,19.09,0,0,1,9-10.85,28.54,28.54,0,0,1,15.71-3.9c7.61.25,14.42,2.62,19.63,8.47a15.49,15.49,0,0,1,3.92,8.76,20.49,20.49,0,0,1-.8,6.77l-3.12-2.47c-.2-1.31.28-2.58.09-3.93-.66-4.74-3.28-8.14-7.13-10.69a23.45,23.45,0,0,0-12.78-3.78,24.86,24.86,0,0,0-13.19,3.2,16.1,16.1,0,0,0-7,7.45,8.27,8.27,0,0,0-.79,2.75Z" style="fill:#d5d5d3"/><path d="M210.41,397.19l0-2.16a2.24,2.24,0,0,1,1.19-.95,60.75,60.75,0,0,0,17.34-13.18A46,46,0,0,0,241,356.27a42.32,42.32,0,0,0,.38-6.56c0-.51-.22-1.15.48-1.46h3.18c.65.19.5.75.52,1.19a43,43,0,0,1-4,19.49c-4.88,10.67-12.76,18.65-22.5,24.94a75.54,75.54,0,0,1-7.17,4.07C210.72,398.53,210.6,398.45,210.41,397.19Z" style="fill:#828180"/><path d="M100.53,363l-.25-.92a7.87,7.87,0,0,1-1-3.16A43.92,43.92,0,0,1,99,343.33c.29-1.88.39-1.93,2.31-1.69l1.84.06c.33.45.09.92,0,1.38-2,11.54.64,22,7.08,31.7a56.25,56.25,0,0,0,13.5,13.9,2.51,2.51,0,0,1,.91,1.08c0,1.12,0,2.23,0,3.35-.49.34-.84-.05-1.17-.28a65.86,65.86,0,0,1-12.24-10.61A57.42,57.42,0,0,1,104.05,372a56.33,56.33,0,0,1-3.38-7.77C100.51,363.8,100.79,363.36,100.53,363Z" style="fill:#828180"/><path d="M241.7,348.41a41.82,41.82,0,0,1-4.6,21.27,50.07,50.07,0,0,1-7,10.31A64.33,64.33,0,0,1,217.4,391a58.48,58.48,0,0,1-7,4,83.53,83.53,0,0,1-.21-8.37c.84.38.4,1.14.52,1.74,0,.32-.05.64,0,1,.07.53-.3,1.26.24,1.55s.93-.32,1.37-.58a58.65,58.65,0,0,0,16.58-14.39,41.79,41.79,0,0,0,8.87-21.21,28.27,28.27,0,0,0,.32-4.87,1.82,1.82,0,0,1,.3-1.48l2.82,0C241.37,348.25,241.56,348.19,241.7,348.41Z" style="fill:#878685"/><path d="M98.86,362.45c-4.65.77-9.09,1.48-13.51,2.25a1.07,1.07,0,0,1-1.25-.55c-2.54-3.81-4.93-7.7-7.21-11.67-.34-.59-.36-.87.42-1q4.71-.72,9.42-1.52a1,1,0,0,1,1,.29C91.41,354.27,95.06,358.27,98.86,362.45Z" style="fill:#fefefe"/><path d="M124.67,389.76a63.49,63.49,0,0,1-9-7.75c-6.68-7-11.27-15.21-12.91-24.85a38.72,38.72,0,0,1,.42-15.46,19.71,19.71,0,0,1,3.35.21c.39.43.2.91.13,1.37a42.32,42.32,0,0,0,0,13.57,42.82,42.82,0,0,0,8.25,18.64,50,50,0,0,0,9.15,9.4,2.68,2.68,0,0,1,.7.8C124.68,387.05,124.67,388.4,124.67,389.76Z" style="fill:#878685"/><path d="M175.25,241.44c9-4.78,18.63-7.2,28.64-8.47a155,155,0,0,1,26.73-1c.61,0,1.63.73,1.92-.61,0-.16.34,0,.48.16l1.19,1-58.53,9.12C175.48,241.71,175.21,241.88,175.25,241.44Z" style="fill:#fefefe"/><path d="M192.71,52.89,180.23,65.66a28,28,0,0,0-7.19-5c-.62-.3-.19-.64,0-.93q3-5.23,6-10.44A73.68,73.68,0,0,1,192.71,52.89Z" style="fill:#fefefe"/><path d="M210.37,388.56c-.1-.63.2-1.3-.2-1.9l0-1.45a55.37,55.37,0,0,0,9.23-7.47,40.93,40.93,0,0,0,11-19.18,36.54,36.54,0,0,0,.66-12.17c-.19-1.94-.7-3.8-1-5.71,1.18,2.3,2.38,4.58,3.52,6.9a1.18,1.18,0,0,0,1.26.81,1.39,1.39,0,0,1,.31,1,37.09,37.09,0,0,1-3.43,16.94,45.71,45.71,0,0,1-9.3,13.36,54.24,54.24,0,0,1-10.88,8.54C211.14,388.42,210.82,388.71,210.37,388.56Z" style="fill:#949392"/><path d="M210.37,388.56a56.68,56.68,0,0,0,11.4-8.72,47.11,47.11,0,0,0,7.89-10.23,41.86,41.86,0,0,0,4.83-13.85,46.51,46.51,0,0,0,.28-7.37l3.59,0a44.43,44.43,0,0,1-1.87,13.84c-2.68,8.61-7.87,15.54-14.47,21.48a59,59,0,0,1-10.79,7.59c-.94.53-.87.08-.86-.57S210.37,389.28,210.37,388.56Z" style="fill:#8d8c8b"/><path d="M114.74,331.65c-2.28,3-4.49,5.9-6.69,8.81-.39.51-.93.36-1.43.33-4.3-.24-8.6-.48-12.9-.75-2.94-.19-5.73.74-8.61,1-.64.06-1.26.2-2.15.34,1.33-1.79,2.53-3.42,3.75-5,.24-.32.65-.31,1-.36,6-1,12.08-2,18.11-3,2.7-.44,5.4-.91,8.09-1.36A5.51,5.51,0,0,1,114.74,331.65Z" style="fill:#fefefe"/><path d="M124.69,385.69a34.74,34.74,0,0,1-7.18-6.4,49.78,49.78,0,0,1-6.21-8.55,43.74,43.74,0,0,1-5-13.92,42.89,42.89,0,0,1-.42-9.26c0-1.89.44-3.76.68-5.65a2.69,2.69,0,0,0,3.06-1.58,17.19,17.19,0,0,1,1.46-1.85c-.27,2-1,4-1.3,6a38.19,38.19,0,0,0,3.62,23.05,46.06,46.06,0,0,0,6.84,10,35.45,35.45,0,0,0,4.2,4.2c.36.29.52.21.74-.07Z" style="fill:#8d8c8b"/><path d="M190.69,295q-4.63,6.07-9.27,12.14a1.28,1.28,0,0,1-1.21.54c-3.18-.16-6.36-.3-9.55-.4a1.18,1.18,0,0,1-1.13-.65c-.69-1.21-1.42-2.4-2.16-3.57-.3-.47-.42-.67.29-1,4.57-1.81,9.09-3.77,13.67-5.54,3-1.15,6.2-1.19,9.28-1.88Z" style="fill:#fefefe"/><path d="M151.58,348.17c-.5-.34-.26-.75-.14-1.17a16.2,16.2,0,0,1,7.82-9.35,25.16,25.16,0,0,1,15.26-3.13,21.76,21.76,0,0,1,14.8,7,14.17,14.17,0,0,1,3.56,8.51,6.65,6.65,0,0,1-.5,3.1L189.05,351c.3-6.52-5.34-11.17-11-12.76a21.66,21.66,0,0,0-14.17.65,15.2,15.2,0,0,0-8,6.88,4,4,0,0,1-.82,1.17Z" style="fill:#dad9d9"/><path d="M166.45,200.21a22.26,22.26,0,0,1-4.82-18.79,53.89,53.89,0,0,1,3-10C169.74,177.43,170.67,192.65,166.45,200.21Z" style="fill:#f8e81d"/><path d="M82.47,318.08c2.54-2.11,5-4.19,7.55-6.26a1.67,1.67,0,0,1,.77-.29l25.44-4.09c.24,0,.48,0,.72,0,.1.39-.25.47-.43.62-1.83,1.53-3.72,3-5.49,4.6a7.16,7.16,0,0,1-3.92,1.75c-8.15,1.24-16.29,2.53-24.44,3.81C82.64,318.18,82.6,318.15,82.47,318.08Z" style="fill:#fefefe"/><path d="M100,234.45c0,.55,0,1.11.85.8.21-.07.58-.21.63.07.18,1.17,1,.63,1.54.57a139.38,139.38,0,0,1,23.73-1,103.87,103.87,0,0,1,17.73,2.34c.7.15.83.29.55,1-.91,2.2-.88,2.21-3.3,2l-33.68-2.95c-3.65-.32-7.3-.67-11.21-1,.91-.79,1.43-1.79,2.69-1.87A.38.38,0,0,1,100,234.45Z" style="fill:#fefefe"/><path d="M244.6,223c-2-.06-3.29-.52-4.06-2.05a5,5,0,0,1-.1-4.86c1.59-3.32,4.47-4.68,7.62-5.83a1.41,1.41,0,0,1,1.43.19c1.88,1.34,3.78,2.65,5.71,3.91a1,1,0,0,1,.41,1.38,13.86,13.86,0,0,1-4.31,5.48.15.15,0,0,1-.1.06C248.79,221.57,246.58,222.71,244.6,223Z" style="fill:#e4ac56"/><path d="M171.33,191.09a33.54,33.54,0,0,0-1.08-12.53,1.24,1.24,0,0,1,.18-1,10.64,10.64,0,0,1,2.39-3.24,17.35,17.35,0,0,0,3.11-3.46,18.18,18.18,0,0,1,4.22-3.9,48.1,48.1,0,0,1,.07,6.88,29.71,29.71,0,0,1-2.57,11.09,7,7,0,0,1-1.82,2.47,43.21,43.21,0,0,0-4.22,4.23C171.13,191.65,171.25,191.36,171.33,191.09Z" style="fill:#f8e81d"/><path d="M146.22,50.6c1.57,3,2.73,6.17,4.12,9.25.19.42,0,.53-.33.69a25.26,25.26,0,0,0-6.34,4.23c-.41.38-.65.37-1.06,0-2.92-3-5.86-6-8.81-8.94-.35-.35-.48-.62,0-.94A95.16,95.16,0,0,1,146.22,50.6Z" style="fill:#fefefe"/><path d="M251.76,184a13.36,13.36,0,0,1-1.28,4.39,59,59,0,0,1-7.57,11.84c-.43.55-.67.44-1.11.05a9.13,9.13,0,0,0-3.91-2.21c-.48-.12-.58-.3-.36-.74,2.29-4.55,4.33-9.24,7.58-13.23a7.07,7.07,0,0,1,3.29-2.47C250.45,181,251.77,181.88,251.76,184Z" style="fill:#e4ab56"/><path d="M210.41,397.19c.19.7.41,1,1.26.56a78.86,78.86,0,0,0,16.14-10.89,59,59,0,0,0,7.68-8.29,48,48,0,0,0,9-19.64,43.31,43.31,0,0,0,.77-10.54,11.59,11.59,0,0,1,2.94-.14c.44,0,.64.26.79.6a3.09,3.09,0,0,1,.2,1.41,58.8,58.8,0,0,1-1.43,11.21,30.15,30.15,0,0,1-1.53,4.37,114.4,114.4,0,0,1-9.18,12.06,119,119,0,0,1-25.25,22.68c-.16.11-.34.21-.5.33-.67.52-.94.37-.91-.5C210.45,399.34,210.41,398.27,210.41,397.19Z" style="fill:#7c7b7a"/><path d="M177.53,49c-1.8,3.53-4,6.86-5.94,10.3-.24.43-.52.47-1,.3a24.3,24.3,0,0,0-7.44-1.53c-.76,0-.66-.5-.66-1,0-2.94,0-5.89,0-8.83a50,50,0,0,1,9.63.09C173.91,48.47,175.72,48.78,177.53,49Z" style="fill:#fefefe"/><path d="M150,156.24c3,2.86,5.83,5.52,8.41,8.39A1.77,1.77,0,0,1,159,166a18.92,18.92,0,0,0,1.81,9.39,1,1,0,0,1,.19.78c-.38,1.37-.74,2.75-1.15,4.25C151.9,174.28,150,165.83,150,156.24Z" style="fill:#f8e81d"/><path d="M183.59,183.84a65.16,65.16,0,0,1-1.71,9.42c-.09.38-.44.55-.72.77a66.45,66.45,0,0,0-14.08,14.38c0,.05-.11.06-.27.14a14.8,14.8,0,0,1,.35-4.6c2.38-9,8.9-14.74,16-20A2.5,2.5,0,0,1,183.59,183.84Z" style="fill:#f8e81d"/><path d="M125,398.81a1.13,1.13,0,0,1,.13.33c.17,1.61.32,3.22.49,4.95a87.13,87.13,0,0,1-8.56-5.38,121.55,121.55,0,0,1-21.43-19.54c-.84-.95-.83-1,.37-1.32a6.09,6.09,0,0,1,.81-.22c1.49-.2,2.63-.73,2.54-2.52,1.53,4.12,4.49,7.24,7.33,10.42A70.26,70.26,0,0,0,123.55,399C124.12,399.35,124.59,399.57,125,398.81Z" style="fill:#716f6e"/><path d="M178.87,153.1c.35,8.73-2.29,16-9.23,21.42-.19.15-.44.56-.67.25a2.66,2.66,0,0,1-.69-1.73c.05-.63.19-1.26.26-1.89a27,27,0,0,0,0-7,2,2,0,0,1,.25-1.48A34.67,34.67,0,0,1,178.87,153.1Z" style="fill:#f7e81d"/><path d="M273.12,216.72a7.31,7.31,0,0,1-2.65,4.44.73.73,0,0,1-1,0l-17.32-12.34c-.17-.12-.64-.22-.29-.59a.48.48,0,0,1,.74.07c1.2,1.27,2.45.83,3.65,0a23.16,23.16,0,0,0,2.33-1.86,1,1,0,0,1,1.53-.07c4.15,3.23,8.32,6.42,12.5,9.62C272.91,216.26,273.18,216.51,273.12,216.72Z" style="fill:#706f6e"/><path d="M244.61,181.08a8.87,8.87,0,0,1-1.28,3.5,58.73,58.73,0,0,1-7.3,9.73c-.28.31-.47.46-.86.12A10.48,10.48,0,0,0,230.7,192c-.44-.1-.58-.28-.34-.75,2-3.84,4-7.61,7.15-10.66a7.5,7.5,0,0,1,4.22-2.33C243.46,178.05,244.63,179.06,244.61,181.08Z" style="fill:#e4ac56"/><path d="M100.53,363a71.16,71.16,0,0,0,3.08,7.58A57,57,0,0,0,111.48,382a67.57,67.57,0,0,0,12.76,11,1.67,1.67,0,0,0,.45.13l0,1.62c.09.61.39,1.39-.15,1.77s-1.09-.28-1.58-.58a67.64,67.64,0,0,1-13.22-10.74,57.66,57.66,0,0,1-9.34-12.92,4.52,4.52,0,0,1-.66-1.66C99.89,368,100.16,365.5,100.53,363Z" style="fill:#7c7b7a"/><path d="M160.17,193.67a76.49,76.49,0,0,0-7.26-5.4,3.65,3.65,0,0,1-1-1.2,20.34,20.34,0,0,1-3.05-10.16c-.11-1.83,0-3.66,0-5.7,1.06.79,2.13,1.31,2.73,2.47a23.49,23.49,0,0,0,6.78,8.07,2.16,2.16,0,0,1,1,2.13A26,26,0,0,0,160.17,193.67Z" style="fill:#f8e81d"/><path d="M151.42,136.66a53.1,53.1,0,0,1,8.06,11.87,2,2,0,0,1,.08,1.39,20.85,20.85,0,0,0,.1,10.38c.06.19.18.41.13.58-.15.48,0,1.21-.43,1.42s-.76-.44-1.08-.75a19.11,19.11,0,0,1-4.58-7C151.52,148.87,151.2,143,151.42,136.66Z" style="fill:#f7e81d"/><path d="M258.24,189.44a10.86,10.86,0,0,1-1.06,3.5,56.41,56.41,0,0,1-7.28,11.19c-.36.46-.61.49-1,.08a7.11,7.11,0,0,0-3.42-2.09c-.51-.12-.49-.4-.29-.8,1.92-3.84,3.58-7.82,6-11.4a11,11,0,0,1,2-2.23,4.42,4.42,0,0,1,2.24-1.07C257.22,186.35,258.29,187.31,258.24,189.44Z" style="fill:#e4ac56"/><path d="M155.09,346.94A13.65,13.65,0,0,1,161,340a19.74,19.74,0,0,1,13-2.85c6.25.64,11.57,3.1,14.47,9.16a5.73,5.73,0,0,1,.54,4.67l-3.61-1.9c-.43-3.49-2.67-5.72-5.54-7.18a16.4,16.4,0,0,0-17.05.68,15.31,15.31,0,0,0-2.56,2.33c-.25.24-.43.49-.14.82Z" style="fill:#e0e0df"/><path d="M99.77,370.6c1.36,2,2.38,4.29,3.77,6.32a63.74,63.74,0,0,0,12.13,13.32,85.44,85.44,0,0,0,7.7,5.56c.36.23.71.73,1.13.5s.12-.8.2-1.21c0-.12,0-.24,0-.36a19.93,19.93,0,0,1,.24,4.08c.06,1-.08,1.36-1.16.71a90.62,90.62,0,0,1-11.62-8.22,66.57,66.57,0,0,1-11.72-13,4.31,4.31,0,0,1-1.15-3.16A23.55,23.55,0,0,1,99.77,370.6Z" style="fill:#767474"/><path d="M161,48.25c0,3,0,6,0,9,0,.61-.18.83-.81.84a23.21,23.21,0,0,0-7.69,1.46c-.54.19-.85.19-1.1-.41-1.23-3-2.5-5.92-3.76-8.88A76.87,76.87,0,0,1,161,48.25Z" style="fill:#fefefe"/><path d="M164.81,209.63a67.52,67.52,0,0,0-14.55-14.87,1.76,1.76,0,0,1-.64-1c-.52-2-1-4.07-1.62-6.42,1.63,1.08,3,2,4.36,2.89,3.43,2.33,6.84,4.68,9.48,8a25.28,25.28,0,0,1,1.84,2.63,6.65,6.65,0,0,1,1.19,5.18A17.35,17.35,0,0,0,164.81,209.63Z" style="fill:#f7e81d"/><path d="M77.05,194.49c.06-.4.1-.92.22-1.42a2.38,2.38,0,0,1,3.8-1.5,6.6,6.6,0,0,1,2.31,3.12,40.3,40.3,0,0,1,2.56,9.42s0,.08,0,.12c.14.9.62,1.92.35,2.68-.32.91-1.61.27-2.4.67-.46.24-1,.27-1.42.58-1.16,1-1.45.28-1.84-.74a52.48,52.48,0,0,1-3.46-11.51C77.13,195.48,77.11,195,77.05,194.49Z" style="fill:#e4ab56"/><path d="M90.66,341.27c-1.16,2.55-2.22,4.87-3.25,7.2-.18.39-.47.36-.78.41l-9.73,1.64a1.21,1.21,0,0,1-1.51-.75c-.92-1.88-1.94-3.72-3-5.68Z" style="fill:#fefefe"/><path d="M88.63,203.87c-2.09-4.05-4-8.05-4.13-12.65,0-1.54.15-3.1,1.87-3.79,1.3-.52,3,.27,4.13,1.94,1.67,2.41,2.29,5.22,2.84,8,.24,1.21.36,2.44.54,3.66.07.41,0,.67-.5.68A7,7,0,0,0,88.63,203.87Z" style="fill:#e4ab56"/><path d="M85.59,366.39l12.85-1.95c-.21,2.29-.4,4.51-.6,6.71-.11,1.23-.29,2.46-.37,3.69,0,.54-.21.82-.76.81,0,0-.09,0-.12,0-2.68,1.06-4.38,0-5.84-2.31S87.4,368.81,85.59,366.39Z" style="fill:#fefefe"/><path d="M186.21,192.82a35.51,35.51,0,0,1-3.76,11,1.21,1.21,0,0,1-.84.6,43.92,43.92,0,0,0-13,6.13c-.16.11-.31.26-.53.12C169.84,206.51,180.68,195.78,186.21,192.82Z" style="fill:#f7e81d"/><path d="M168.52,159.72a45.59,45.59,0,0,0-.21-9.74,7,7,0,0,1,1.82-6c1.62-1.59,3.07-3.34,5.06-5.07,0,1.81.05,3.37,0,4.92a40.82,40.82,0,0,1-1.69,10.11,3.21,3.21,0,0,1-1,1.59A32.68,32.68,0,0,0,168.52,159.72Z" style="fill:#f7e81d"/><path d="M160.15,345.75c-1,0-.57-.5-.26-.86a13.93,13.93,0,0,1,7-4.55c5.21-1.38,10.2-.94,14.69,2.26a9.24,9.24,0,0,1,4.05,5.54c.08.36.2.7-.17,1l-4.05-1.63c-3.54-5.36-11.69-6.11-16.28-2.76-.36.27-.8.32-1.17.55Z" style="fill:#e7e7e6"/><path d="M107.58,213.6a53.89,53.89,0,0,1-5.24,11.91c-1,1.6-4.7,1.07-5.92-.82a6.66,6.66,0,0,1-1-3c-.22-2.33-.23-2.33,2-3.11A57.32,57.32,0,0,0,107.58,213.6Z" style="fill:#e4ab56"/><path d="M220.65,230.82a140.71,140.71,0,0,0-17.76,1.25c-10.66,1.5-21,4.11-30.27,9.82-1.19.73-1.6,0-2.29-.7a36.44,36.44,0,0,1,6.81-4.12A66.58,66.58,0,0,1,196,231.59a142.43,142.43,0,0,1,26.59-1.17C222.05,231.17,221.24,230.46,220.65,230.82Z" style="fill:#fefefe"/><path d="M161.51,208.73A42.91,42.91,0,0,0,150.72,205a3.2,3.2,0,0,1-2.62-2.16,40.52,40.52,0,0,1-2.88-9.42C151.43,197.9,157.09,202.65,161.51,208.73Z" style="fill:#f7e81d"/><path d="M156.09,111.47a9.16,9.16,0,0,1,3.26-.12c1.13.13,2.28.08,3.43.11a5.68,5.68,0,0,1-.46,2.43,59.48,59.48,0,0,0-3.61,13.46l-3.26-3.42c-.26-.27-.18-.6-.18-.91q.15-5.13.29-10.27A2.13,2.13,0,0,1,156.09,111.47Z" style="fill:#fefefe"/><path d="M181.69,244.51a16.22,16.22,0,0,1-5.54,8.76,2.79,2.79,0,0,1-2.59.46,6.2,6.2,0,0,1-3.91-3.24c-.36-.61.09-1.05.16-1.57.26-2,1.5-2.87,3.41-3.28A37.51,37.51,0,0,1,181.69,244.51Z" style="fill:#e4ab56"/><path d="M163.54,154.9c3.2,5,4.12,10.36,3.43,16.3-.94-1.33-1.79-2.53-2.76-3.92l-2.39,6.15C159.45,168.86,160.65,161.24,163.54,154.9Z" style="fill:#f7e81d"/><path d="M164.21,111.32l3.79-.58a5.19,5.19,0,0,0,.31.5,8.94,8.94,0,0,1,2,5.43c.05,2.38.37,4.75.57,7.13a1.11,1.11,0,0,1-.28,1.09c-.93.84-1.83,1.72-2.8,2.66a63.83,63.83,0,0,0-3.37-13.75A9.42,9.42,0,0,1,164.21,111.32Z" style="fill:#fefefe"/><path d="M101.32,341.64c-1.77.07-1.7.08-2,1.81a48,48,0,0,0-.43,9.95,37.84,37.84,0,0,0,1.26,7.82c.06.27.08.55.13.82-1.6-1.54-3.08-3.18-4.52-4.86-.73-1.23-.64-2.62-.76-4a41.44,41.44,0,0,1,.62-10.83,1.11,1.11,0,0,1,1.63-1A17.93,17.93,0,0,1,101.32,341.64Z" style="fill:#7c7b7a"/><path d="M95.88,197.43c-1.29-3.39-2.63-6.62-2.86-10.16-.14-2.17.55-3.45,2-3.75s2.52.57,3.26,2.55a28.62,28.62,0,0,1,1.35,9.05c0,.3,0,.54-.4.59A5.68,5.68,0,0,0,95.88,197.43Z" style="fill:#e4ab56"/><path d="M130.47,314.61c-1.52.38-2.56,1.53-3.71,2.44a44.23,44.23,0,0,0-5.56,5,54.7,54.7,0,0,0-4.71,5.82,1.57,1.57,0,0,0-.41,1.08,23.79,23.79,0,0,1-1.46-3.76c-.26-.69.22-1.13.58-1.59a53.14,53.14,0,0,1,10.67-10.19c.52-.38,1-.95,1.79-.78A18.07,18.07,0,0,1,130.47,314.61Z" style="fill:#8d8c8b"/><path d="M228.58,337a32.66,32.66,0,0,0-5-9,40.84,40.84,0,0,0-4.92-5.67c-.31-.29-.54-.71-1.05-.71a16.07,16.07,0,0,1,2.63-1.68c.65-.32,1.08.1,1.45.49a51,51,0,0,1,9,12,1.44,1.44,0,0,1,.07,1.26A22,22,0,0,1,228.58,337Z" style="fill:#949392"/><path d="M205.59,316.05a86.24,86.24,0,0,0-9.07-4.15c-1.89-.69-3.82-1.3-5.76-1.85-2.9-.83-5.86-1.27-8.8-1.89l1.85-2.39a7.66,7.66,0,0,1,3.3.27,71.33,71.33,0,0,1,14.53,4.59,2.42,2.42,0,0,1,1.09.88c-.26,1.65.72,2.63,1.87,3.53A10.5,10.5,0,0,1,205.59,316.05Z" style="fill:#9a9997"/><path d="M227.07,181.13c-.25.18-.43.33-.62.46a20.65,20.65,0,0,0-5.22,4.5c-.26.34-.47.44-.87.15q-1.87-1.4-3.8-2.7c-.47-.32-.38-.59-.11-1q2-2.9,4-5.82c.23-.34.42-.55.84-.22,1.82,1.42,3.65,2.82,5.48,4.23A4.51,4.51,0,0,1,227.07,181.13Z" style="fill:#706f6e"/><path d="M230.74,333.63a8,8,0,0,0-1.55-3.3,54.68,54.68,0,0,0-7.5-9.52,2.36,2.36,0,0,0-1.49-.92,16.17,16.17,0,0,1,2.74-1.72c.55-.23.9.09,1.26.42a48.64,48.64,0,0,1,8.25,10.17c.29.48.73,1,.4,1.64A22.12,22.12,0,0,1,230.74,333.63Z" style="fill:#8d8c8b"/><path d="M167.32,305c-3,.2-5.9.56-8.83,1a69.42,69.42,0,0,0-10.34,2.66,5.63,5.63,0,0,1-.93.13l.26-2.41a1.39,1.39,0,0,1,1.1-1.11,81.1,81.1,0,0,1,16.34-3.16,1.43,1.43,0,0,1,.8.18A16.61,16.61,0,0,1,167.32,305Z" style="fill:#949392"/><path d="M202.73,311.51a71.72,71.72,0,0,0-15.9-5.22,28.45,28.45,0,0,1-3-.52,14.09,14.09,0,0,1,1.85-2.42,1.66,1.66,0,0,1,1.16-.1,77.36,77.36,0,0,1,14.38,4.1,2.81,2.81,0,0,1,1.54,1C202.74,309.44,202.73,310.47,202.73,311.51Z" style="fill:#949392"/><path d="M127.66,312.66a34.88,34.88,0,0,0-5.32,4,49.17,49.17,0,0,0-6.84,7.07,3.25,3.25,0,0,0-.88,1.52,19.81,19.81,0,0,1-1.42-3.63c.18-1.23,1.23-1.88,2-2.69a58.18,58.18,0,0,1,8.47-7.43c.47-.34,1-.77,1.62-.47A12.83,12.83,0,0,1,127.66,312.66Z" style="fill:#878685"/><path d="M160.69,145.48c-.55-5.43.94-10.1,2.77-15A23.65,23.65,0,0,1,167.05,146a29.86,29.86,0,0,0-4-6.64Z" style="fill:#f7e71d"/><path d="M246.26,365.84a4.14,4.14,0,0,1,.37-1.73,38.46,38.46,0,0,0,2-11.79,20.51,20.51,0,0,0,.24-2.72c-.12-.78-.33-1.36-1.33-1.25-.75.08-1.51,0-2.27,0l-3.59,0-.52-.08c2.73-.33,5.48,0,8.21-.23,1.41-.11,2.05.32,2.32,1.72a46.76,46.76,0,0,0,1.29,4.59,1.25,1.25,0,0,1-.05,1.13C250.81,359,248.73,362.57,246.26,365.84Z" style="fill:#757473"/><path d="M163,151.48l-2.16,5.6c-.74-5,.8-9.64,2.58-14.46a23.68,23.68,0,0,1,3.59,15.5A29.86,29.86,0,0,0,163,151.48Z" style="fill:#f7e71d"/><path d="M155.31,126.81a25.29,25.29,0,0,1,5.07,6.75,1,1,0,0,1,.08.79,31.81,31.81,0,0,0-1.53,9C154.93,138.24,155,132.56,155.31,126.81Z" style="fill:#f7e71d"/><path d="M165.72,302.38c-4.14.49-8.27,1.12-12.35,2-1.77.37-3.49,1-5.24,1.45-.35.1-.41.47-.65.66.15-1.19.3-2.38.46-3.58a1.9,1.9,0,0,1,1.11-.64,74.75,74.75,0,0,1,14.07-2.64,1.31,1.31,0,0,1,1,.17A16.39,16.39,0,0,1,165.72,302.38Z" style="fill:#8d8c8b"/><path d="M97.25,341.4c-.88-.06-1.17.29-1.32,1.22a47.85,47.85,0,0,0-.65,9.48c.07,1.7.31,3.39.48,5.08A49.61,49.61,0,0,1,91.88,353a4.45,4.45,0,0,1-.57-2.74,67.76,67.76,0,0,1,.75-7.93c.12-.59.14-1.35,1.11-1.16A18,18,0,0,1,97.25,341.4Z" style="fill:#767473"/><path d="M168.57,240.59c1.13-.81,2.2-1.62,3.31-2.37a54.9,54.9,0,0,1,19.94-7.85,115.82,115.82,0,0,1,32.35-1.49c2,.16,4.05.35,6.07.5a.7.7,0,0,1,.72.5l-5.08-.3c-11.85-.67-23.65-.47-35.32,2-7.49,1.59-14.59,4.15-20.81,8.76A1.14,1.14,0,0,1,168.57,240.59Z" style="fill:#fdfdfd"/><path d="M202.74,308.4a59.84,59.84,0,0,0-11.65-3.86c-1.82-.38-3.62-.79-5.43-1.19l1.79-2.37a1.5,1.5,0,0,1,1.36-.21,74.35,74.35,0,0,1,12.67,3.67,2.34,2.34,0,0,1,1.26.85Z" style="fill:#8d8c8b"/><path d="M257.85,204.6a4.43,4.43,0,0,0-4.13-2.21,5.55,5.55,0,0,1,.89-1.95,24.32,24.32,0,0,1,3.86-5.85,1.89,1.89,0,0,1,2.12-.71c.84.31,1,1.08,1.13,1.83a5.86,5.86,0,0,1-.49,3A25.64,25.64,0,0,1,257.85,204.6Z" style="fill:#e4ab56"/><path d="M232.85,330.4c-.75-2.22-2.27-4-3.62-5.83a41.47,41.47,0,0,0-5.11-5.65c-.35-.33-.64-.73-1.18-.75a14.23,14.23,0,0,1,2.64-1.68c.54-.23.9.09,1.26.43a53.68,53.68,0,0,1,7.69,9.25c.24.37.5.74.27,1.22A19.12,19.12,0,0,1,232.85,330.4Z" style="fill:#878685"/><path d="M125.26,311c-1.48.39-2.48,1.51-3.63,2.41a49.81,49.81,0,0,0-8.43,8.18A14.37,14.37,0,0,1,112,318.5a1.33,1.33,0,0,1,.49-1.26,66.74,66.74,0,0,1,9.09-7.87,1.05,1.05,0,0,1,1-.26A17.44,17.44,0,0,1,125.26,311Z" style="fill:#828180"/><path d="M122.56,309.11a42.75,42.75,0,0,0-5.28,4c-1.51,1.28-2.89,2.7-4.34,4.06a3.73,3.73,0,0,0-1,1.34,1.37,1.37,0,0,1-.2-.29c-.46-1.19-1.37-2.44-1.23-3.55s1.73-1.72,2.68-2.54c1.8-1.56,3.68-3,5.5-4.6.53-.46.93-.6,1.52-.11S121.79,308.55,122.56,309.11Z" style="fill:#7c7b7a"/><path d="M234.8,327.39a20.1,20.1,0,0,0-3.14-4.7,45.24,45.24,0,0,0-5-5.54c-.32-.29-.6-.64-1.08-.66a18.9,18.9,0,0,1,2.95-1.88c.35-.15.5.15.68.33a61.09,61.09,0,0,1,7,7.81c.36.52.82,1,.49,1.73A18.47,18.47,0,0,1,234.8,327.39Z" style="fill:#828180"/><path d="M172.54,138.57a25.42,25.42,0,0,0,.33-13.23,44.49,44.49,0,0,1-.86-8.25c1,1.59,2.06,3.17,3.06,4.77a1.46,1.46,0,0,1,.13.7q.35,6.13.67,12.29c0,.3.13.63-.16.89Q174.12,137.15,172.54,138.57Z" style="fill:#fefefe"/><path d="M163.38,116.65c1.42,4.74,2.73,9.25,2.56,14l-.41.1-2.44-3.55-1.64,4.08a2.91,2.91,0,0,1-.9-2.47A48.25,48.25,0,0,1,163.38,116.65Z" style="fill:#f7e81d"/><path d="M72.32,195.15a5.63,5.63,0,0,1,5.21,4.76,5.2,5.2,0,0,1,.09,2.48c-.18.62-.36.92-1,.41s-1.43-.94-1.23-2a2.09,2.09,0,0,0-.23-1c-.46-1.17-.81-1.25-1.74-.41s-1.79,1.58-2.63,2.43c-.55.55-.78.37-1.11-.21-1.17-2.14-1.14-4,.16-5.3A3.21,3.21,0,0,1,72.32,195.15Z" style="fill:#e4ab56"/><path d="M163.94,345.26c4.39-4.25,12.82-3.66,16.7.77a2.17,2.17,0,0,1,.75,1.44,52.58,52.58,0,0,0-10.09-2.09C168.85,345.16,166.39,345.31,163.94,345.26Z" style="fill:#ecebeb"/><path d="M164.14,299.78a93.24,93.24,0,0,0-13.58,2.39c-.88.23-1.75.48-2.62.72l.24-2.16a1.38,1.38,0,0,1,1.17-1.3,89.05,89.05,0,0,1,12.34-2.29,1.3,1.3,0,0,1,1,.25Z" style="fill:#878685"/><path d="M168.77,141.7a26.22,26.22,0,0,0-1.92-8.14,1,1,0,0,1,0-.91,19.32,19.32,0,0,1,4.3-5.52C172.38,131,171.34,137.6,168.77,141.7Z" style="fill:#f7e71d"/><path d="M202.74,305.29a79,79,0,0,0-14.1-4.25,6.69,6.69,0,0,0-1.19-.06l1.85-2.4a1.21,1.21,0,0,1,1-.13,75.48,75.48,0,0,1,11.79,3.36,2.18,2.18,0,0,1,.61.36C202.73,303.21,202.74,304.25,202.74,305.29Z" style="fill:#878685"/><path d="M162.7,297.39a91.65,91.65,0,0,0-13.65,2.44c-.51.12-.61.57-.87.9.16-1.19.31-2.39.46-3.58a3,3,0,0,1,1.71-.76c3-.6,6-1.26,9-1.65a2.4,2.4,0,0,1,1.94.26Z" style="fill:#828180"/><path d="M177,125c.3.45.63.88.9,1.35s.66.73,0,1.11c-.12.07,0,.53,0,.81.36,6.28.68,12.57,1.11,18.85.24,3.56.26,3.65-2.89,5.45,0,0-.06,0-.07,0C177.74,143.4,177.42,134.2,177,125Z" style="fill:#fdfdfd"/><path d="M153.16,135.62l-.1-.06a5.18,5.18,0,0,1-1.88-5c.42-3.75.52-7.53.69-11.3.07-1.67,1.21-2.73,2-4,.35,6.65-1.37,13.21-.43,19.84C153.53,135.36,153.63,135.64,153.16,135.62Z" style="fill:#fdfdfd"/><path d="M202.73,302.17a3.3,3.3,0,0,1-1.47-.34,81,81,0,0,0-12-3.25,15.57,15.57,0,0,1,1.86-2.42,2,2,0,0,1,1.5,0c3,.65,5.93,1.53,8.85,2.43a2.66,2.66,0,0,1,1.23.7C202.74,300.26,202.73,301.22,202.73,302.17Z" style="fill:#828180"/><path d="M161.26,295c-3.4,0-6.64,1-10,1.54-.89.15-1.77.41-2.66.61a11.39,11.39,0,0,1,.27-2.4,1.1,1.1,0,0,1,1-1.11c2.7-.63,5.41-1.19,8.15-1.56a2.15,2.15,0,0,1,1.6.28Z" style="fill:#7c7b7a"/><path d="M202.74,299.3c-3.83-1.15-7.66-2.32-11.58-3.14a.76.76,0,0,1,0-.11c1.68-2.54,1.69-2.54,4.52-1.57,1.85.62,3.66,1.34,5.53,1.85,1.22.33,1.79.87,1.54,2.14A5.69,5.69,0,0,0,202.74,299.3Z" style="fill:#7c7b7a"/><path d="M185,230.68a80.32,80.32,0,0,1,29.71-4,96.94,96.94,0,0,1,10.22.89c0,.46-.32.27-.56.23-5.49-.23-11-.5-16.48-.27a91,91,0,0,0-22,3.3,3.83,3.83,0,0,1-.59.1C185.08,231,185,230.91,185,230.68Z" style="fill:#fbfbfb"/><path d="M116.1,233.53a132.12,132.12,0,0,1,29.4,1.37c.35.06,1.08-.18.94.49s-.36,1.25-1.38,1c-2.08-.49-4.19-.88-6.31-1.22a116.24,116.24,0,0,0-22.13-1.36l-.48,0a.17.17,0,0,1-.1-.17C116.06,233.56,116.08,233.53,116.1,233.53Z" style="fill:#fcfcfc"/><path d="M116.23,232.25a60.63,60.63,0,0,1,7.73-.56,101.18,101.18,0,0,1,23.68,1.63c-.08.86-.58.79-1.19.69a126.39,126.39,0,0,0-14-1.52,140.1,140.1,0,0,0-15.06,0h-.83C116.44,232.42,116.29,232.41,116.23,232.25Z" style="fill:#fbfbfb"/><path d="M93.17,341.16c-.54.07-.7.47-.76.92a78.67,78.67,0,0,0-.72,8.81,18.62,18.62,0,0,0,.19,2.1c-1-1.09-2-2.2-3.11-3.26a1,1,0,0,1-.19-1.35c1-2.19,2.06-4.37,3-6.58C92,341,92.41,340.78,93.17,341.16Z" style="fill:#716f6e"/><path d="M58.9,215.92c-.23-.93.22-1.11,1.07-1.16a32,32,0,0,0,4.13-.55c.71-.13,1-.07,1,.74a11.82,11.82,0,0,0,.47,3.06c.16.68.17,1.05-.74.8-1.72-.49-3.43-1-5.11-1.62C59.12,217,58.64,216.7,58.9,215.92Z" style="fill:#706f6e"/><path d="M236,201.67c.09-2.63.78-3.06,3.12-1.91a4,4,0,0,1,1.12.66c.52.52,1.79.57,1.42,1.68a3.57,3.57,0,0,1-3.27,2.36A2.72,2.72,0,0,1,236,201.67Z" style="fill:#fdfdfd"/><path d="M229,195.36c.06-2.7.74-3.12,3.16-1.92a3.52,3.52,0,0,1,1,.58c.52.54,1.81.58,1.48,1.66a3.42,3.42,0,0,1-3.58,2.37A2.67,2.67,0,0,1,229,195.36Z" style="fill:#fdfdfe"/><path d="M164.62,241.14c-1.07,1.29-2.19,1.1-3.47.52-1.8-.81-3.66-1.49-5.51-2.19-.58-.22-.76-.56-.46-1.07s.12-1.35,1.1-1A35.43,35.43,0,0,1,164.62,241.14Z" style="fill:#fdfdfd"/><path d="M188.74,176.83v-8.45c1.38.19,2.63.27,3.61,1.24.39.37.64.56.26,1.12C191.31,172.72,190.06,174.74,188.74,176.83Z" style="fill:#fdfdfd"/><path d="M243.64,205.65a9,9,0,0,1,.73-2.43c.2-.48.51-.33.88-.22a9.68,9.68,0,0,1,3.28,2.31c.15.14.27.3.15.51-.52.9-1,1.86-2.07,2.2S243.65,206.88,243.64,205.65Z" style="fill:#fdfdfd"/><path d="M94.16,203.55a4.32,4.32,0,0,1-.4,1.92,2.23,2.23,0,0,1-2.28,1.41,2.84,2.84,0,0,1-2.26-1.9c-.21-.45.14-.55.37-.73a9.42,9.42,0,0,1,3.42-1.6C93.89,202.42,94.31,202.67,94.16,203.55Z" style="fill:#fdfdfd"/><path d="M81.33,213.17c-.09.69-.14,1.47-.89,1.81s-1.23-.3-1.71-.77-1-1.1-1.6-1.59-.38-.61.1-.84.69-.41,1-.58C80.73,210,81,210.34,81.33,213.17Z" style="fill:#fcfcfc"/><path d="M159.65,292.36c-3.47.06-6.79,1.07-10.16,1.69-.42.08-.32.53-.58.7.11-2.18.11-2.2,2.12-2.46,2.41-.31,4.82-.54,7.23-.87A1.13,1.13,0,0,1,159.65,292.36Z" style="fill:#757473"/><path d="M121.85,230.42a87.66,87.66,0,0,1,26.73,1.84,123.55,123.55,0,0,0-25-1.6C123,230.69,122.35,231,121.85,230.42Z" style="fill:#f7f7f7"/><path d="M184.26,191.38a60,60,0,0,0,1.27-7c.7.38,1.47.53,1.41,1.62C186.82,188.15,187.47,190.6,184.26,191.38Z" style="fill:#fbfbfb"/><path d="M199.34,160l-.29.47c-1.38,2.19-2.79,4.36-4.12,6.58-.46.76-.78.47-1.3.14s-.41-.68,0-1.09a23.36,23.36,0,0,0,4.7-6.57c.09-.21.14-.52.47-.27S199.38,159.58,199.34,160Z" style="fill:#6f6d6d"/><path d="M167.46,244a3.61,3.61,0,0,1-2.79-.78c-.35-.35-.33-.54.05-.84a5.66,5.66,0,0,1,4.9-.38c.66.36.6.63.15,1.15A2.2,2.2,0,0,1,167.46,244Z" style="fill:#fcfcfc"/><path d="M80.31,209.71a11.3,11.3,0,0,0-3.6,1.82c-.3.23-.53.3-.77-.08s-.39-.55,0-.91a8.41,8.41,0,0,0,2.27-5A35,35,0,0,0,80.31,209.71Z" style="fill:#e3aa56"/><path d="M227.76,184.39a1.4,1.4,0,0,1-1.36-.87c-.17-.53.49-.59.81-.81,1-.7,2.13-1.36,3.17-2.07.5-.33.69-.17.78.34a2,2,0,0,1-.8,2.2A5.4,5.4,0,0,1,227.76,184.39Z" style="fill:#fbfbfb"/><path d="M252.91,205.12c0-.68,0-1.62.48-1.86.65-.32,1.39.31,2,.73s1.2.73,1.09,1.42-.78,1.14-1.49,1.39C253.71,207.24,252.91,206.6,252.91,205.12Z" style="fill:#fdfdfd"/><path d="M84.09,211.32a4.39,4.39,0,0,1-.62-.08,1.63,1.63,0,0,1-1.3-1.1c-.14-.62.61-.69,1-.91a6.77,6.77,0,0,1,2.38-.67c.87-.11.93.34.82,1A2.25,2.25,0,0,1,84.09,211.32Z" style="fill:#fdfdfd"/><path d="M236.71,324.48c-.16-1.32-1.17-2.13-1.92-3.07a44.82,44.82,0,0,0-6.26-6.8c.39-.47.62-.07.85.17,2.6,2.64,5.18,5.28,7.77,7.93C238,323.54,237,323.92,236.71,324.48Z" style="fill:#7a7979"/><path d="M74.32,201.13a3.79,3.79,0,0,1-2.22,3.1c-.49.17-.75-.13-1-.43s-.44-.69-.06-1.05a16.44,16.44,0,0,1,2.65-2.38C74.64,199.8,74,201,74.32,201.13Z" style="fill:#fbfbfc"/><path d="M166.84,240.55c-.6.14-1,.21-1.34,0a36.73,36.73,0,0,0-9.17-4.17c.5-.51.51-.54.9-.4A51.41,51.41,0,0,1,166.84,240.55Z" style="fill:#f6f6f6"/><path d="M99.6,197.5a1.82,1.82,0,0,1-1.31,2,1.22,1.22,0,0,1-1.54-.54c-.26-.38-.32-.68.08-1a7,7,0,0,1,1.69-1.08C99.31,196.5,99.76,196.55,99.6,197.5Z" style="fill:#fbfbfb"/><path d="M167.53,239.49a.63.63,0,0,1-.66-.1,61.22,61.22,0,0,0-6.51-3.31c0-.23.06-.34.3-.22a37.49,37.49,0,0,1,6.87,3.39c.08.05.11.1.08.16S167.56,239.49,167.53,239.49Z" style="fill:#e6e5e7"/><path d="M150.28,149.74c.42,1.63.85,3.26,1.32,5.08a2.48,2.48,0,0,1-1.52-2.28c0-.68,0-1.35-.05-2C150,150.23,149.71,149.84,150.28,149.74Z" style="fill:#f3f3f3"/><path d="M148.6,164.34c.33,1.58.67,3.16,1,4.74l-.33.09c-1.13-1.3-.62-3-.92-4.56C148.26,164.35,148.38,164.3,148.6,164.34Z" style="fill:#efeff0"/><path d="M149.34,139.17a12.55,12.55,0,0,1,.21-3.12l0,8.65c-.08.09-.15.07-.2,0A37.54,37.54,0,0,1,149.34,139.17Z" style="fill:#48474c"/><path d="M157.46,241.67c-.48,0-1-.08-1.42-.1-.74,0-1.08-.38-.89-1.25l3,1.1C158.11,242,157.72,241.65,157.46,241.67Z" style="fill:#e9e9e9"/><path d="M147.71,158.58c.53-1-.13-2.12.39-3.1,0,1.91.05,3.82.08,5.72.09.24,0,.29-.23.22Z" style="fill:#fbfbfb"/><path d="M220.65,230.82c.56-.48,1.34.09,1.9-.4a6.26,6.26,0,0,1,2.4.18c.08,0,.11.09.09.14s0,.08-.07.08Z" style="fill:#cccbce"/><path d="M231.9,231a17.54,17.54,0,0,1-3.55,0C229.07,230.57,229.07,230.57,231.9,231Z" style="fill:#504f54"/><path d="M121.85,230.42c.53.36,1.15,0,1.69.24a7.77,7.77,0,0,1-2.45.16c-.21-.19-.57.05-.74-.24A2.75,2.75,0,0,1,121.85,230.42Z" style="fill:#a2a1a5"/><path d="M159.16,235.61a4.67,4.67,0,0,1-1.92-.91,4,4,0,0,1,2.23.66C159.43,235.52,159.27,235.53,159.16,235.61Z" style="fill:#cfced0"/><path d="M116.1,233.53l0,.27c-.57.32-1.17.09-1.76.1l0-.11A2.27,2.27,0,0,1,116.1,233.53Z" style="fill:#a6a4a8"/><path d="M224.39,227.78l.56-.23,1.92.24c.08,0,.11.08.09.13s-.06.07-.08.07A7,7,0,0,1,224.39,227.78Z" style="fill:#f3f2f3"/><path d="M167.53,239.49v-.24c.73.13,1.07-.56,1.65-.75.26-.13.28,0,.25.22A1.94,1.94,0,0,1,167.53,239.49Z" style="fill:#dcdbdd"/><path d="M150.28,149.74c-.28.2-.12.53-.25.78a6.6,6.6,0,0,1-.2-2.46c.08-.12.14-.11.2,0Z" style="fill:#cdccce"/><path d="M225,230.82a.55.55,0,0,0,0-.22h2.7v.22Z" style="fill:#f4f4f5"/><path d="M116.23,232.25l.33.24-2.32.14c-.21-.07-.2-.17,0-.29Z" style="fill:#fcfbfc"/><path d="M150,148.08l-.2,0a2.71,2.71,0,0,1-.08-2Z" style="fill:#767479"/><path d="M107.25,234.24l2.39-.23c.07,0,.09.08.07.12s0,.06-.07.06a5.91,5.91,0,0,1-2.4.23c-.08,0-.11-.08-.08-.12A.12.12,0,0,1,107.25,234.24Z" style="fill:#828085"/><path d="M112,231.38l2.16-.25c.07.05.09.09.06.13s0,.06-.07.06a4,4,0,0,1-2.16.24c-.08-.05-.11-.09-.08-.13A.11.11,0,0,1,112,231.38Z" style="fill:#6e6c71"/><path d="M107.25,234.24a1.09,1.09,0,0,0,0,.18,4.48,4.48,0,0,1-2.15.25c-.09,0-.12-.09-.09-.14a.14.14,0,0,1,.1-.06Z" style="fill:#535157"/><path d="M120.35,230.58l.74.24-1.87.08c-.21,0-.49.22-.47-.23Z" style="fill:#f3f3f4"/><path d="M118.75,230.67l.47.23a2.67,2.67,0,0,1-1.48.16q-.1-.09-.06-.15s0-.06.08-.06A1,1,0,0,1,118.75,230.67Z" style="fill:#8b898e"/><path d="M111.05,234a1.29,1.29,0,0,1,1.48,0l0,0a1.88,1.88,0,0,1-1.48.21c-.06,0-.07-.08,0-.12A.1.1,0,0,1,111.05,234Z" style="fill:#767479"/><path d="M226.88,228a.45.45,0,0,1,0-.2l1.89.23c.07,0,.1.08.09.13s0,.07-.06.07A4.13,4.13,0,0,1,226.88,228Z" style="fill:#d2d1d3"/><path d="M140.5,358.42l.26.25-1.26,1A1.89,1.89,0,0,1,140.5,358.42Z" style="fill:#88888a"/><path d="M105.1,234.47a.67.67,0,0,0,0,.2,3.29,3.29,0,0,1-2.22.17Z" style="fill:#2a2a2e"/><path d="M112,231.38a1.09,1.09,0,0,1,0,.18,3.31,3.31,0,0,1-1.91.24c-.07-.05-.08-.09-.06-.14s0-.06.07-.06Z" style="fill:#4b4a4f"/><path d="M110.12,231.6a1.41,1.41,0,0,0,0,.2c-.42.45-.93.22-1.43.11Z" style="fill:#252529"/><path d="M148,161.42l.23-.22a1.55,1.55,0,0,1,.18,1.24c-.09.09-.16.08-.22,0A1,1,0,0,1,148,161.42Z" style="fill:#7c7b80"/><path d="M159.16,235.61l.31-.25a2.51,2.51,0,0,1,1.19.5l-.3.22Z" style="fill:#e6e5e6"/><path d="M110.8,232.75a1.1,1.1,0,0,1,1-.17.35.35,0,0,1,.21.22,1.11,1.11,0,0,1-1,.18A.47.47,0,0,1,110.8,232.75Z" style="fill:#6f6e73"/><path d="M104.12,233.71c-.49.5-1.11.19-1.67.26h0c.47-.49,1.18-.11,1.7-.44.06.05.08.1,0,.13S104.15,233.71,104.12,233.71Z" style="fill:#353439"/><path d="M114.41,233.79l0,.05,0,.06-1.87,0,0,0C113.12,233.48,113.77,233.74,114.41,233.79Z" style="fill:#f5f5f5"/><path d="M116.32,231.1a1,1,0,0,1-1,.19c-.06,0-.08-.1,0-.13s0,0,.08,0a.93.93,0,0,1,1-.22c.07.06.08.11.05.15A.09.09,0,0,1,116.32,231.1Z" style="fill:#6f6d72"/><path d="M110.8,232.75l.23.23h-1.51A2.17,2.17,0,0,1,110.8,232.75Z" style="fill:#c2c0c4"/><path d="M185,230.68l.29.23c-.28.3-.69.26-1,.4-.11-.08-.26-.1-.31-.25Z" style="fill:#c2c1c4"/><path d="M114.2,232.34l0,.29a.93.93,0,0,1-.81.11c-.08-.08-.24-.08-.24-.24A1.24,1.24,0,0,1,114.2,232.34Z" style="fill:#939196"/><path d="M113.19,232.5l.24.24-1.4.06-.21-.22Z" style="fill:#f4f4f4"/><path d="M107.18,233.44h-1.45v-.15l1.25-.06C107.22,233.13,107.26,233.23,107.18,233.44Z" style="fill:#737177"/><path d="M157.46,241.67c.22-.13.55.07.7-.25l.87.35A2.11,2.11,0,0,1,157.46,241.67Z" style="fill:#656469"/><path d="M148.6,164.34l-.25.27a1.4,1.4,0,0,1-.15-1c.07-.09.14-.09.2,0A.67.67,0,0,1,148.6,164.34Z" style="fill:#a4a2a6"/><path d="M169.43,238.72l-.25-.22a1.51,1.51,0,0,1,1-.56C170.13,238.44,169.74,238.54,169.43,238.72Z" style="fill:#b3b1b4"/><path d="M107.73,233c.43,0,.86-.16,1.29.09a3.11,3.11,0,0,1-1.31.13c-.06-.06-.08-.11,0-.16S107.71,233,107.73,233Z" style="fill:#a2a0a4"/><path d="M111.05,234a.28.28,0,0,0,0,.18l-1.39,0V234Z" style="fill:#cecccf"/><path d="M100,234.45l-.47,0c.44-.37,1-.13,1.44-.19h0C100.76,234.57,100.37,234.41,100,234.45Z" style="fill:#353439"/><path d="M116.32,231.1a.76.76,0,0,0,0-.21l1.41,0a.3.3,0,0,0,0,.21Z" style="fill:#eaeaeb"/><path d="M102.45,234c-.42.45-1,.17-1.45.23h0c.42-.46,1-.17,1.44-.24Z" style="fill:#353439"/><path d="M184,231.06l.31.25c-.28,0-.61.44-.8.05S183.76,231.1,184,231.06Z" style="fill:#c3c1c4"/><path d="M175.25,241.44l.43.22c-.27.19-.59.39-.85.06C174.76,241.63,175.06,241.48,175.25,241.44Z" style="fill:#68666b"/><path d="M225.88,226.59c.16-.11.44,0,.52-.28.2.05.44.25.35.34C226.48,227,226.16,226.76,225.88,226.59Z" style="fill:#9f9da1"/><path d="M149.38,144.68l.2,0c.21.13.26.29.08.48s-.14,0-.21.07Z" style="fill:#1f2024"/><path d="M148.4,163.61l-.1,0h-.1l-.06-1.18.22,0Z" style="fill:#fbfbfb"/><path d="M107.73,233a.53.53,0,0,0,0,.22.42.42,0,0,1-.52.18l-.21-.21A.71.71,0,0,1,107.73,233Z" style="fill:#3e3e42"/><path d="M104.12,233.71l0-.18h1.12C104.83,233.85,104.46,233.69,104.12,233.71Z" style="fill:#605f64"/><path d="M153.16,135.62l.28-.53a.85.85,0,0,1,.14.95C153.5,136.14,153.23,135.84,153.16,135.62Z" style="fill:#d3d2d4"/><path d="M228.79,228.22a.64.64,0,0,0,0-.2c.28-.08.61.13.56.26C229.2,228.58,229,228.4,228.79,228.22Z" style="fill:#5a595e"/><path d="M171.33,191.09c.09.17,0,.45.28.52-.05.21-.27.44-.37.33S171.15,191.37,171.33,191.09Z" style="fill:#827b38"/><path d="M115.37,231.11a.36.36,0,0,0,0,.18l-1.16,0a1.28,1.28,0,0,1,0-.19Z" style="fill:#b9b7bb"/><path d="M109.76,420.21c1.75,3.67.88,7-2.28,9a5.71,5.71,0,0,1-6.34,0c-2.94-1.82-5.79-3.79-8.68-5.71-.21-.14-.53-.28-.29-.64.46-.69.91-1.4,1.41-2.07.3-.39.59,0,.82.14a1.13,1.13,0,0,0,1.81-.37q4-5.91,8-11.79c.49-.73.47-1.35-.33-1.8-.55-.31-.57-.57-.22-1.1,1.33-2,1.31-2.07,3.31-.71,2.31,1.56,4.66,3.06,6.9,4.72,3.61,2.67,3.26,7.43-.63,9.68A5.55,5.55,0,0,1,109.76,420.21Z" style="fill:#fefefe"/><path d="M124.72,441.25c-5.15,0-9-3.91-8.81-9.36a15.85,15.85,0,0,1,5.25-11.64c5.25-4.75,12.89-2.51,14.46,4.18a11,11,0,0,1,.1,4.74,16.86,16.86,0,0,1-5.27,9.78A8.57,8.57,0,0,1,124.72,441.25Z" style="fill:#fefefe"/><path d="M212.62,412.5c.22.2.46.4.68.62,4.14,4.09,8.26,8.19,12.43,12.26.74.73,1.34,1.83,2.79,1.3.46-.16.59.64.82,1,.93,1.63.92,1.63-.68,2.52s-3.22,1.73-4.79,2.67c-.68.42-1,.33-1.31-.4a5.31,5.31,0,0,0-.58-1c-.38-.56-.55-1,.23-1.42a.8.8,0,0,0,.19-1.32,3.11,3.11,0,0,0-.23-.28c-1.73-2.14-1.73-2.14-4.11-.82l-.21.12c-2.43,1.34-2.49,1.54-1.48,4.18.27.71.75,1,1.38.63s.94-.08,1.25.47c1.08,2,1.1,1.95-.86,3-1.12.61-2.25,1.2-3.34,1.86-.5.3-.77.23-1-.28a12.09,12.09,0,0,0-.76-1.36.84.84,0,0,1,.16-1.3c.64-.55.34-1.35.19-2q-1.68-7.56-3.42-15.12c0-.2-.06-.4-.1-.59-.69-3.13-.56-3.38,2.39-4.54C212.36,412.65,212.46,412.58,212.62,412.5Z" style="fill:#fefefe"/><path d="M184.83,440.81c.19-1.81.38-3.62.55-5.43.22-2.3.41-4.6.62-6.91.08-.94-.13-1.61-1.3-1.38-.46.09-.58-.14-.68-.57-.57-2.44-.59-2.45,1.87-2.92,1.25-.24,2.51-.43,3.77-.64.27,0,.54-.18.62.26.14.78.3,1.56.43,2.35,0,.14,0,.39-.11.42-1.75.6-1.35,2.19-1.5,3.44-.68,5.57-1.28,11.16-1.87,16.74a1,1,0,0,1-1,1c-3,.48-3,.5-4.33-2.21l-7.23-14.53c-.34-.69-.7-1.35-1.65-1.31-.64,0-.46-.53-.53-.87-.47-2.29-.46-2.28,1.8-2.64,1.57-.26,3.15-.49,4.7-.86,1.05-.25,1.49,0,1.48,1.1a5.55,5.55,0,0,0,.2,1.05c.11.54.06.87-.62,1-.92.15-1,.86-.7,1.56,1.73,3.79,3.49,7.57,5.24,11.35Z" style="fill:#fefefe"/><path d="M154,439.08c2.15,1.19,2.15,1.19,1.17,3.3-.82,1.76-1.67,3.51-2.44,5.3-.27.62-.58.84-1.25.72q-5.68-1-11.39-2c-.73-.12-.94-.4-.75-1.09a6.27,6.27,0,0,0,.2-1.05c.08-.73.2-1.29,1.22-1.08s1.23-.66,1.37-1.42c.5-2.73,1-5.48,1.46-8.22.28-1.6.54-3.21.83-4.81.2-1.07.31-2-1.19-2.17-.36,0-.47-.22-.44-.65.16-2.6.18-2.64,2.78-2.18,1.73.29,3.44.65,5.17.88.78.11.91.44.75,1.09a5.53,5.53,0,0,0-.21,1.06c0,.81-.27,1.23-1.23,1.05-1.18-.22-1.22.81-1.36,1.55-.54,2.85-1,5.71-1.5,8.57-.27,1.53-.49,3.07-.83,4.58-.22,1,.19,1.25,1.07,1.38a4.9,4.9,0,0,0,4.83-2A22.74,22.74,0,0,0,154,439.08Z" style="fill:#fefefe"/><path d="M249.19,405.17a6.54,6.54,0,0,1-6.58,6.61,6.59,6.59,0,0,1,0-13.17A6.47,6.47,0,0,1,249.19,405.17Z" style="fill:#fefefe"/><path d="M74.17,397.55a6.58,6.58,0,1,1,6.56,6.6A6.47,6.47,0,0,1,74.17,397.55Z" style="fill:#fefefe"/><path d="M195.07,424.23c-.38,0-.88.64-1.21.06a12.61,12.61,0,0,1-1-2.44c-.1-.34.33-.39.57-.48,2.19-.85,4.39-1.66,6.56-2.53.56-.22.8-.09,1,.43a10.86,10.86,0,0,0,.51,1.34c.3.63.37,1.06-.48,1.32-1,.32-.83,1.11-.54,1.86l4.26,11.14c.18.48.4.95.56,1.44.34,1.11.87,1.83,2.15,1.14.17-.09.41-.21.51,0,.34.85.68,1.7,1,2.57.09.27-.24.35-.46.43-2.27.87-4.53,1.73-6.79,2.62-.42.17-.63.14-.77-.33a7.65,7.65,0,0,0-.52-1.33c-.39-.75-.41-1.24.58-1.56s.62-1.14.37-1.81q-1.9-5-3.84-10c-.4-1-.81-2.07-1.22-3.1C196.08,424.5,195.77,424.11,195.07,424.23Z" style="fill:#fefefe"/><path d="M165,425.9c1.19,0,2.39,0,3.58,0,.51,0,.73.16.67.68a9.61,9.61,0,0,0,0,1.2c.06.81.05,1.5-1.12,1.36-.53-.06-.86.35-.94.89a7.45,7.45,0,0,0-.09,1c-.08,4.38-.15,8.75-.24,13.13,0,1.15.16,2,1.59,1.89.45,0,.55.19.51.57v.12c.12,2.49.12,2.48-2.39,2.46-1.79,0-3.58-.06-5.37-.05-.6,0-.91-.14-.83-.8a5.22,5.22,0,0,0,0-1.31c-.08-.84.17-1.28,1.1-1.18.69.07,1-.34,1-1,.21-4.86.23-9.71.25-14.57,0-.84-.37-1.29-1.23-1.21-.68.07-.76-.27-.77-.84,0-2.39-.06-2.38,2.34-2.34H165Z" style="fill:#fefefe"/><path d="M39.3,122.24a6.89,6.89,0,0,1,6.92,6.45c.06.5.21.58.65.49l6.69-1.2a1.35,1.35,0,0,0,1.17-.91c.26-1,.78-.72,1.41-.47,2,.78,1.85.73,1.25,2.76s-1.58,3.3-4,3.28-5,.56-7.47.79a1.13,1.13,0,0,0-1.2,1c-.12.67.53.55.87.69,1.32.54,2.66,1,4,1.55.79.29,1.51.33,1.78-.7.14-.5.41-.54.88-.39,2.45.77,2.46.76,1.55,3.12-.57,1.48-1.19,2.95-1.7,4.45-.22.64-.47.84-1.09.53a7.92,7.92,0,0,0-1.22-.48c-.7-.21-1.11-.47-.71-1.33.28-.6-.09-1.06-.7-1.3-4.49-1.72-9-3.46-13.46-5.17a1,1,0,0,0-1.56.78c-.13.54-.37.54-.85.39-2.54-.82-2.55-.8-1.6-3.28s1.88-4.9,2.83-7.35A5.48,5.48,0,0,1,39.3,122.24Z" style="fill:#fefefe"/><path d="M297.66,184.86c-1.57-.74-2.94-1.43-4.36-2-.68-.29-1.31-.2-1.14.82.08.5-.09.68-.6.78-2.53.49-2.53.5-2.92-2-.21-1.38-.42-2.75-.64-4.13,0-.2-.15-.48-.06-.58.66-.72,1.63-.35,2.43-.65.36-.13.74-.08.81.41a2,2,0,0,0,1.29,1.46c2.43,1.19,4.88,2.33,7.31,3.52a1,1,0,0,0,1.17-.25c1.88-1.54,3.78-3.06,5.65-4.61.67-.56,1.37-1.14,1.24-2.18,0-.33.1-.45.43-.56,2.51-.79,2.72-.65,3.1,1.95.25,1.77.55,3.54.87,5.3.13.72,0,1.16-.82,1.16a6.41,6.41,0,0,0-1.3.21c-.56.11-1,.08-1.1-.64s-.64-.71-1.12-.34c-.95.72-1.87,1.48-3,2.36,1.31.6,2.46,1.17,3.65,1.66.65.27,1,0,.9-.74s.2-.78.77-.86c2.38-.36,2.37-.37,2.74,2,.21,1.42.42,2.83.67,4.24.09.5,0,.75-.55.78a6.78,6.78,0,0,0-1.41.22c-.76.22-1.25.16-1.43-.78-.1-.55-.68-.87-1.19-1.11-2.08-1-4.18-1.95-6.25-3a.92.92,0,0,0-1.16.2c-2,1.64-4,3.24-6,4.89-.86.71-1.76,1.43-1.71,2.72,0,.33-.2.36-.43.45-2.15.8-2.66.52-3-1.73-.31-2-.6-3.93-1-5.89-.11-.61,0-.88.66-.9a5.67,5.67,0,0,0,1.41-.22c.69-.2,1.11-.18,1.15.73,0,.72.52.85,1.08.42C295.07,187,296.29,186,297.66,184.86Z" style="fill:#fefefe"/><path d="M307.35,205c1.27.7,2.33,1.32,3.43,1.87.6.3,1.14.25,1.05-.64-.06-.57.13-.73.7-.79,2.48-.24,2.47-.26,2.68,2.23.11,1.31.21,2.62.4,3.92.11.8-.14,1.12-.93,1.06a3.28,3.28,0,0,0-.83,0c-.83.15-1.53.25-1.68-1-.06-.53-.66-.87-1.16-1.15-2-1.11-4-2.19-5.93-3.33a.93.93,0,0,0-1.17.12c-2.18,1.54-4.39,3-6.56,4.6-.79.58-1.65,1.19-1.64,2.35,0,.45-.29.46-.63.53-2.47.49-2.59.42-2.82-2.08-.18-1.9-.32-3.81-.52-5.71-.06-.65.07-1,.79-.94a5.94,5.94,0,0,0,1.18-.14c.72-.1,1.35-.14,1.34.91,0,.78.55.7,1,.41,1.2-.78,2.36-1.63,3.54-2.44.38-.26.37-.45,0-.68-1.23-.66-2.42-1.39-3.67-2-.67-.33-1.32-.26-1.22.76.06.56-.21.62-.66.7-2.42.43-2.53.35-2.72-2.1-.11-1.47-.23-2.94-.34-4.41,0-.3-.16-.68.33-.73.79-.09,1.58-.15,2.38-.23.28,0,.46.07.47.38.05,1,.77,1.45,1.5,1.87,2.25,1.28,4.52,2.53,6.76,3.82a.86.86,0,0,0,1.07-.08c2.14-1.53,4.3-3,6.44-4.56.42-.31,1-.67.93-1.18-.06-1.3.78-1.21,1.62-1.25,1.69-.07,1.68-.09,1.82,1.55.18,2.06.34,4.13.58,6.19.08.68-.06.94-.76.92a8.7,8.7,0,0,0-1.43.16c-.61.09-1.06.09-1.08-.77s-.59-.71-1.1-.37C309.47,203.53,308.5,204.22,307.35,205Z" style="fill:#fefefe"/><path d="M102.53,60.9c0,2.5-1.32,4.29-2.9,5.89S96.1,70,94.34,71.63c-.43.4-.71.39-1-.07s-.58-.65-.88-1c-.48-.5-1-.89-.1-1.58s.12-1.31-.34-1.83q-3.47-3.89-7-7.75c-.75-.83-1.51-1.64-2.25-2.48-.6-.67-1.22-.91-1.92-.17-.37.39-.61.27-1-.08-1.81-1.8-1.82-1.79.06-3.49,1.53-1.39,3.09-2.76,4.62-4.16,2.51-2.31,5.36-2.83,8.37-1.3C98.35,50.49,101.83,54.71,102.53,60.9Z" style="fill:#fefefe"/><path d="M62,78.88c5.34.05,11.86,4.52,13.84,9.29,1.13,2.71.47,5.18-.89,7.53-1.19,2.06-2.58,4-3.85,6-.31.49-.56.57-1,.21a6.59,6.59,0,0,0-1-.65c-.7-.38-1.26-.71-.59-1.66.51-.72-.2-1.16-.72-1.51q-3.84-2.53-7.7-5c-1.34-.87-2.69-1.71-4-2.59-.71-.47-1.35-.54-1.8.3-.34.64-.67.42-1.12.14-2-1.27-2-1.26-.76-3.22s2.42-3.75,3.66-5.6A6.55,6.55,0,0,1,62,78.88Z" style="fill:#fefefe"/><path d="M120.92,39.24c-1.42-2.51-2.82-5-4.26-7.53-.39-.66-1-.61-1.55-.22s-.65.16-.92-.27c-1.36-2.18-1.37-2.17.81-3.38,1.08-.59,2.17-1.17,3.23-1.81.49-.29.77-.25,1,.3a6.68,6.68,0,0,0,.58,1c.42.66.77,1.19-.26,1.74-.81.43-.34,1.2,0,1.79q2.73,5,5.49,9.93c1,1.78,1.95,3.56,3,5.32.36.63.41,1-.34,1.37-2.14,1.17-2.11,1.21-4-.43L113.4,38a2.73,2.73,0,0,0-1.05-.63c.12.25.23.49.36.73,1.74,3.14,3.49,6.26,5.22,9.4.45.8.95,1.32,1.88.67.45-.31.64-.11.9.3,1.36,2.17,1.37,2.16-.85,3.39-1,.57-2.11,1.12-3.13,1.74-.56.34-.85.22-1.09-.33a6.72,6.72,0,0,0-.52-.95c-.44-.67-.84-1.29.28-1.75a.76.76,0,0,0,.32-1,6.79,6.79,0,0,0-.39-.87L108.91,37c-.5-.91-1-1.69-2.22-.87a.35.35,0,0,1-.58-.13c-.39-.7-.77-1.4-1.16-2.09-.26-.44.09-.56.35-.71,1.57-.87,3.15-1.71,4.69-2.62.6-.35.87.05,1.21.35l7.69,6.83,1.84,1.62Z" style="fill:#fefefe"/><path d="M29.69,194l-8-.79c-.86-.09-1.54.07-1.53,1.14,0,.47-.2.64-.65.58-.72-.09-1.43-.17-2.14-.23-.46,0-.47-.29-.43-.65.21-1.83.41-3.65.57-5.47,0-.46.2-.64.66-.58.71.09,1.43.18,2.14.22.49,0,.47.3.41.65-.18,1.08.47,1.41,1.37,1.51,3.93.41,7.85.81,11.77,1.23,1.94.2,3.87.47,5.82.62.79.06.92.38.8,1a6.88,6.88,0,0,0-.17,1.42c0,.79-.31,1.07-1.07,1.24-5,1.16-10.07,2.37-15.1,3.57A3.43,3.43,0,0,0,23,200l11.74,1.23c.93.09,1.72,0,1.71-1.2,0-.41.25-.55.64-.51a6.38,6.38,0,0,1,2.33.33c.74.44.09,1.36.06,2.06,0,1.27-.29,2.53-.36,3.8-.05.74-.38.85-1,.71a4.78,4.78,0,0,0-1.19-.14c-.79,0-1.15-.2-1.05-1.08s-.59-1-1.25-1.11c-2.89-.32-5.78-.64-8.67-.94-1.75-.19-3.49-.35-5.24-.52-.89-.08-1.62.07-1.59,1.21,0,.44-.26.53-.63.5-.12,0-.24,0-.36,0-2.26-.13-2.26-.13-2.08-2.36,0-.43.11-.87.16-1.3.12-1.06-.18-2.43.53-3.09s2-.61,3-.86L29,194.49A.75.75,0,0,0,29.69,194Z" style="fill:#fefefe"/><path d="M214,35.35c-1.82,3.27-3.63,6.54-5.46,9.8-.45.81-.56,1.51.45,2,.4.18.56.43.24.82a.36.36,0,0,0,0,.11c-1.11,2.27-1.11,2.27-3.32,1.05-1.07-.6-2.14-1.22-3.24-1.79-.45-.24-.55-.47-.27-.91a10.58,10.58,0,0,0,.76-1.35c.29-.6.53-1,1.3-.49s1.21,0,1.55-.64c.74-1.28,1.45-2.57,2.16-3.85q2.29-4.12,4.57-8.26c.47-.84.7-1.66-.47-2.15-.31-.14-.43-.33-.21-.64a2.14,2.14,0,0,0,.1-.22c1.11-2.29,1.11-2.29,3.34-1.05.87.48,1.71,1,2.62,1.43s1,1,.87,1.87c-.73,4.08-1.41,8.16-1.91,12.33l2-3.54c.67-1.22,1.33-2.45,2-3.66.43-.76.56-1.43-.42-1.86-.46-.21-.49-.48-.27-1,1.08-2.32,1.07-2.33,3.33-1.07,1.08.6,2.15,1.22,3.24,1.79.47.25.55.48.26.92a9.93,9.93,0,0,0-.74,1.36c-.29.63-.58.93-1.32.47s-1.19,0-1.54.65l-2.16,3.86C219.24,45.17,217.1,49,215,52.84c-.42.78-.71,1-1.57.5-2-1.19-2-1.13-1.57-3.58.8-4.71,1.58-9.42,2.37-14.14C214.27,35.4,214.36,35.13,214,35.35Z" style="fill:#fefefe"/><path d="M32.07,141.33c1,.07,2,.19,3,.18.78,0,1,.33,1.14,1,.26,1.12.06,1.46-1.18,1.48-3.13.06-4.91,1.92-5.2,5.13,0,.4.12.49.41.58l4.45,1.36c.41.13.67.09.78-.4.17-.73.58-1.5-.28-2a5.31,5.31,0,0,0-1.55-.6c-.85-.19-.66-.68-.46-1.23s.16-1.15,1.05-.86c2.69.86,5.38,1.7,8.09,2.49,1,.3.34.87.28,1.3s-.14,1.09-1,.73a4.92,4.92,0,0,0-1.27-.31,1.66,1.66,0,0,0-1.89,1.76c0,.4.31.4.57.47,1.6.49,3.21.93,4.79,1.47.76.26,1.06,0,1.32-.68,1.28-3.47.6-5.52-2.57-7.82-.31-.22-1.4-.27-.69-1.08.51-.57.83-1.72,2.12-.85,2,1.32,4,2.47,6,3.63.63.35.69.67.49,1.31q-1.83,5.87-3.59,11.75c-.22.75-.52.95-1.23.62a4.48,4.48,0,0,0-1-.32c-.73-.15-1.25-.36-.89-1.31.24-.64-.19-1.05-.8-1.24l-13.92-4.26a1,1,0,0,0-1.37.75c-.15.69-.51.72-1.12.53-2.25-.66-2.26-.64-1.59-2.82,1-3.31,2.06-6.61,3-9.93.24-.83.6-1.07,1.43-.94s1.74.13,2.62.18Z" style="fill:#fefefe"/><path d="M202.72,29.1c-.28,4.19-1.3,8-4,11.18-2.19,2.62-4.91,3.86-8.38,3a7.38,7.38,0,0,1-5.77-6.45A16.25,16.25,0,0,1,189,22.4a7.43,7.43,0,0,1,8.17-2.18c3.22,1.05,4.69,3.51,5.31,6.63C202.61,27.63,202.65,28.43,202.72,29.1Z" style="fill:#fefefe"/><path d="M297.14,147.2a12.39,12.39,0,0,1,4.85.94,7.55,7.55,0,0,1,2.89,12c-2.73,3.26-6.44,4.55-10.48,5.13a12.52,12.52,0,0,1-6.58-.69,7.63,7.63,0,0,1-3.16-12c2.72-3.4,6.52-4.68,10.65-5.27C295.9,147.25,296.5,147.24,297.14,147.2Z" style="fill:#fefefe"/><path d="M275.1,129.27l-.7-.45c-3.5-2.07-4.5-5.57-2.48-9.11s5.5-5.66,9.4-6.9a12.62,12.62,0,0,1,8.1-.16,6.35,6.35,0,0,1,4.56,7.2c0,.29-.25.72.31.66,1-.11,1,.69,1.16,1.22s-.51.71-.85,1c-1.54,1.07-3.17,2-4.64,3.16-1.19.93-1.61-.14-2.23-.64-.82-.66.14-.94.4-1.28a13.82,13.82,0,0,0,2.09-2.89c1-2.28-.08-4.18-2.52-4.59a8.42,8.42,0,0,0-3.67.25,16.57,16.57,0,0,0-7.39,4,5.3,5.3,0,0,0-1.58,2.63,2.87,2.87,0,0,0,3.54,3.35c.61-.18,1.18-.48,1.78-.7.92-.34,1.28-.93.76-1.84-.33-.58-.13-.81.42-1.07,2.21-1,2.21-1,3.14,1.15.63,1.5,1.24,3,1.92,4.5.29.62.16.92-.47,1.12a10.41,10.41,0,0,0-1.54.64c-.45.23-.73.21-.92-.3-.3-.86-.91-.87-1.64-.56-2.09.88-4.17,1.78-6.27,2.62-.36.14-.94.76-1.17,0s-1.24-1.35-.29-2.21C274.55,129.73,274.8,129.53,275.1,129.27Z" style="fill:#fefefe"/><path d="M58.79,122.26c.31.61,1.07.7,1,1.38a1.11,1.11,0,0,1-1.59,1.06c-2.31-.74-4.6-1.54-6.94-2.2-1.26-.35-.56-1.14-.6-1.79-.05-.86.52-.69,1-.66a11.19,11.19,0,0,0,4.6-.47,4.65,4.65,0,0,0,2.79-2.29,2.38,2.38,0,0,0-.38-3,2.43,2.43,0,0,0-3-.34,12.66,12.66,0,0,0-2.34,1.84,17.5,17.5,0,0,1-3.55,2.81c-2.49,1.35-4.87.85-7.13-.52a6.12,6.12,0,0,1-3.27-5.82,5.27,5.27,0,0,1,2.73-4.49c.45-.26.88-.43.25-1s.08-1,.21-1.47.56-.27.89-.18c2.08.55,4.14,1.14,6.23,1.62,1.28.29.57,1.18.65,1.81.11.81-.51.71-1,.7a9.62,9.62,0,0,0-3.53.49A4.14,4.14,0,0,0,43.28,112a2,2,0,0,0,.22,2.34,2.09,2.09,0,0,0,2.19.58,4.65,4.65,0,0,0,1.9-1.19c1.11-1,2.16-2,3.31-2.93,2.46-2,5.12-2,7.83-.58s4.31,3.41,4.25,6.5a5.68,5.68,0,0,1-3,5C59.59,121.86,59.19,122.05,58.79,122.26Z" style="fill:#fefefe"/><path d="M279.8,92.38c.66-.07,1.27-.24,1.64.56.25.56.3.88-.21,1.31-1.59,1.32-3.19,2.65-4.68,4.09-1,1-1.42-.14-2.05-.46-.83-.41-.17-.84.07-1.2a9.93,9.93,0,0,0,1.72-3.9,4.3,4.3,0,0,0-.23-2.11A2.28,2.28,0,0,0,273.73,89a2.41,2.41,0,0,0-1.86,2.35,25.22,25.22,0,0,0,.62,5c1.07,6.17-5.28,9.62-9.49,8.54a5.87,5.87,0,0,1-4.5-6.66c.08-.85-.1-1.12-.88-.8s-.93-.46-1.27-.86.06-.75.38-1c2-1.55,4-3.09,5.91-4.67,1.06-.85,1.32.38,1.91.7s.1.71-.13,1A9.67,9.67,0,0,0,262,97.9a4,4,0,0,0,.65,2.61,2.23,2.23,0,0,0,2.55,1.11,2.31,2.31,0,0,0,1.9-2.17,18.46,18.46,0,0,0-.43-4.63c-.75-4.78,1.17-7.73,5.71-9a5.72,5.72,0,0,1,7.42,6.07A4.48,4.48,0,0,0,279.8,92.38Z" style="fill:#fefefe"/><path d="M24.24,212.24,20.16,212c-1-.07-1.8,0-1.74,1.31,0,.4-.16.6-.57.56h-.24c-2.46,0-2.46,0-2.32-2.37.07-1.23.13-2.47.16-3.7,0-.65.23-.95.92-.83a8.17,8.17,0,0,0,1.31.1c.66,0,1.14.08,1,1s.53,1.07,1.23,1.11c2.42.15,4.85.28,7.28.42a27,27,0,0,1,6.39.74C36,211,38,212.38,38.55,215c.83,3.59-1.68,6.91-5.54,7.5-2.63.4-5.25-.05-7.87-.09-1.83,0-3.66-.19-5.49-.3-.95-.05-1.81,0-1.77,1.31,0,.41-.24.49-.62.53-2.61.24-2.73.11-2.52-2.54.13-1.58.2-3.18.26-4.77,0-.61.23-.87.87-.74a5.26,5.26,0,0,0,1.19.08c.72,0,1.33,0,1.19,1-.09.69.49.93,1.1,1,1.67.12,3.34.29,5,.32,2.47,0,4.92.49,7.4.13a5.15,5.15,0,0,0,.93-.2,2.52,2.52,0,0,0,2-2.21,2.73,2.73,0,0,0-1.56-2.74,8.76,8.76,0,0,0-3.94-.81C27.69,212.36,26.13,212.33,24.24,212.24Z" style="fill:#fefefe"/><path d="M70.61,64l.56.26q8,3.67,15.94,7.33c.8.37,1.61.94,2.53.12.4-.35.61.2.85.39,1.81,1.45,1.8,1.46.34,3.2-1,1.16-2,2.29-2.91,3.49-.5.67-.87.6-1.38.08a8.88,8.88,0,0,0-1-.85c-.45-.34-.83-.65-.27-1.22a.7.7,0,0,0,0-1,9.48,9.48,0,0,0-3-1.64c-.26-.11-3.33,3.49-3.17,3.72a10.06,10.06,0,0,0,2.19,2.79.42.42,0,0,0,.56,0c1.09-1.35,1.67,0,2.44.43.93.55.87,1.06.16,1.8-.94,1-1.78,2-2.63,3.11-.44.55-.81.82-1.38.16a8.2,8.2,0,0,0-1.1-.93c-.39-.31-.7-.55-.3-1.15s-.07-1.15-.4-1.63Q74,75.66,69.37,68.94a1.33,1.33,0,0,0-.14-.19c-1.7-2.45-1.7-2.53.48-4.61C69.88,64,70,63.73,70.61,64Z" style="fill:#fefefe"/><path d="M135.94,38.2c0,.57,0,1,0,1.36,0,.8.37,1.26,1.19,1s.8.16,1,.67c.7,2.29.71,2.28-1.61,2.93-1,.27-1.94.48-2.86.84s-1.15,0-1.28-.76a13.55,13.55,0,0,0-.4-1.38c-.07-.26-.22-.64.07-.77,1.23-.54,1-1.64.94-2.59q-.06-8.66-.22-17.32c0-.9.21-1.3,1.14-1.54,2.43-.61,2.41-.67,3.69,1.44,2.81,4.63,5.6,9.26,8.43,13.88.46.75.8,1.69,2,1.54.52-.07.43.5.53.79.71,2.2.7,2.2-1.51,2.84-1.45.42-2.91.8-4.34,1.27-.77.26-1.09,0-1.23-.71a6.71,6.71,0,0,0-.35-1.26c-.22-.57-.24-1,.49-1.16a.71.71,0,0,0,.56-.92,14.55,14.55,0,0,0-1.48-2.85c-.14-.26-.41-.15-.64-.08-1.18.35-2.36.7-3.55,1S136.16,37.76,135.94,38.2Z" style="fill:#fefefe"/><path d="M222.66,59.68l-.49-.36c-1.29-1-2.56-2-3.87-3-.42-.32-.57-.58-.13-1a10.09,10.09,0,0,0,1-1.32c.31-.43.55-.63,1.15-.33.77.4,1.35-.26,1.91-.68q6.13-4.55,12.25-9.13l.77-.57c2.2-1.64,2.17-1.61,4.37.09a1,1,0,0,1,.34,1.48c-2.19,5.15-4.35,10.32-6.52,15.49-.25.59-.48,1.18-.68,1.78-.1.3-.25.73-.12.91,1.11,1.59-.69,2.11-1.11,3.11-.17.4-.45.17-.67,0-1.72-1.35-3.44-2.7-5.18-4-.36-.28-.42-.53-.12-.88s.65-.81,1-1.22.67-1,1.4-.37c.5.41,1,.07,1.25-.46.37-.75.68-1.53,1.08-2.26.23-.44,0-.64-.27-.88-.95-.73-1.89-1.46-2.82-2.21a.75.75,0,0,0-1.14,0c-.5.45-1.06.84-1.6,1.25-.72.56-1,1.14-.14,1.82.21.17.47.31.19.65-.52.65-1,1.32-1.54,2A1.21,1.21,0,0,1,222.66,59.68Z" style="fill:#fefefe"/><path d="M166.16,30.84c2,1.81,2,1.81.83,4s-2.64,4-5.08,4.8a6.72,6.72,0,0,1-7.45-2.45c-3.68-4.43-4.26-12.51-1.33-17.49,1.82-3.09,5.46-5,9.31-2.94.35.18.59.25.71-.19.22-.81.89-.51,1.39-.56.68-.06.56.55.65.93.55,2.16,1.05,4.34,1.64,6.48.38,1.42-.89,1.24-1.5,1.62s-.7-.4-.88-.73a12.57,12.57,0,0,0-2.21-3.53c-1.85-1.82-4-1.52-5.35.76a11,11,0,0,0-1,6.63,11.9,11.9,0,0,0,1.84,5.74c1.65,2.48,4,2.69,6.11.56A15.34,15.34,0,0,0,166.16,30.84Z" style="fill:#fefefe"/><path d="M38.18,168.68l-5.43-2.85c-1.84-1-3.67-1.91-5.52-2.83-.72-.36-1.41-.48-1.63.59-.09.47-.37.57-.79.44a.88.88,0,0,0-.23-.07c-2.31-.5-2.31-.5-1.77-2.81.24-1,.5-2.09.72-3.14.12-.52.36-.75.91-.58a10.08,10.08,0,0,0,1.51.37c.58.08.91.23.9.95s.71,1,1.25,1.3Q32,162.2,36,164.31c2.69,1.45,5.38,2.92,8.1,4.32a1.06,1.06,0,0,1,.64,1.41c-.58,2.59-.56,2.61-3.14,2.73-5.26.24-10.51.43-15.77.68-1,.05-2.22-.22-2.79,1.08-.13.31-.43.13-.64.09-.66-.14-1.31-.34-2-.45s-.53-.33-.43-.75q.75-3.13,1.46-6.27c.12-.55.32-.74.88-.51a7.3,7.3,0,0,0,1.4.32c.65.1,1.06.24.91,1.12s.68,1,1.37,1l7.77-.12c1.46,0,2.91,0,4.36,0Z" style="fill:#fefefe"/><path d="M243.72,71.94a9.08,9.08,0,0,0,4-1.34c.52-.3.71-.22.91.34.56,1.57.59,1.57-.9,2.42-1.86,1.08-3.73,2.13-5.57,3.23-.53.32-.84.37-1.31-.12-2.49-2.64-5-5.24-7.55-7.83-.41-.43-.52-.72,0-1.13a7.39,7.39,0,0,0,1-1c.45-.52.83-.77,1.41-.09s1.11.37,1.58-.09q5.18-5,10.31-10c.55-.53.77-1.13.06-1.73-.43-.35-.41-.61,0-1,1.76-1.83,1.74-1.85,3.48,0,1.08,1.11,2.14,2.25,3.25,3.34.5.49.65.85,0,1.32a5.83,5.83,0,0,0-.95.91c-.45.51-.83.79-1.39.08s-1.15-.31-1.63.14c-1.14,1-2.25,2.14-3.37,3.22l-6.45,6.23c-1,.93-.94,1.18.09,2.07A4.21,4.21,0,0,0,243.72,71.94Z" style="fill:#fefefe"/><path d="M281.35,147.61c-1,.45-1.3-.28-1.61-1.22q-1.59-4.81-3.31-9.58c-.24-.68-.15-1,.57-1.17a7.87,7.87,0,0,0,1.24-.42c.59-.22,1-.35,1.31.5.33,1,1.2.71,1.91.46,3.24-1.09,6.47-2.21,9.71-3.32,1.12-.39,2.25-.77,3.37-1.19.75-.28,1.26-.73.81-1.64-.24-.47,0-.68.44-.86,2.34-1,2.34-1,3.18,1.45.5,1.46,1,2.93,1.54,4.38.24.63.26,1-.54,1.18a4.93,4.93,0,0,0-1.24.43c-.65.3-1.07.32-1.32-.52s-1-.75-1.67-.51l-11.62,4-.68.23c-1.83.64-1.95,1-.92,2.7a4.32,4.32,0,0,0,3,1.93,13.39,13.39,0,0,0,2.37.21c1.56,0,1.51,0,1.27,1.52-.1.67-.39.85-1,.89C286,147.21,283.77,147.41,281.35,147.61Z" style="fill:#fefefe"/><path d="M69.64,104.57c-.08.16-.15.3-.23.44-1,1.88-2.1,3.75-3.11,5.64-.28.52-.54.73-1.09.33a7.62,7.62,0,0,0-1.25-.69c-.66-.28-1-.6-.48-1.32s-.13-1.24-.72-1.57c-2.6-1.47-5.21-2.91-7.82-4.35l-4.5-2.47c-.73-.41-1.38-.45-1.77.43-.24.53-.48.54-1,.28-2.23-1.16-2.24-1.14-1-3.32.77-1.39,1.56-2.77,2.3-4.18.28-.53.55-.72,1.09-.33a6.88,6.88,0,0,0,1.25.69c.62.29,1,.56.47,1.31s.1,1.24.72,1.58L59,100.65c1.95,1.07,3.91,2.14,5.85,3.22.74.42,1.37.46,1.76-.42.23-.52.5-.62,1-.3s1.11.62,1.66.94C69.4,104.2,69.67,104.27,69.64,104.57Z" style="fill:#fefefe"/><path d="M177.82,40.18c-2.11-.21-4-.45-5.92-.58-.9-.06-1.18-.42-1-1.27a4.3,4.3,0,0,0,.15-1.06c0-.74.19-1.11,1-1s1.09-.49,1.16-1.17q.62-5.76,1.22-11.53c.1-1,.17-1.9.25-2.85.05-.65-.22-1.15-.9-1.16s-.84-.41-.8-1.06c.14-2.3.12-2.3,2.41-2.05,1.67.18,3.33.37,5,.53.61.06.85.3.71.91A4.32,4.32,0,0,0,181,19c0,.86-.1,1.44-1.23,1.28-.8-.11-.91.62-1,1.23q-.61,5.58-1.2,11.16c-.11,1-.18,2.07-.28,3.1-.06.72.23,1.21,1,1.21s.83.4.74,1a7.93,7.93,0,0,0-.15,1.18C178.86,40,178.67,40.61,177.82,40.18Z" style="fill:#fefefe"/><path d="M22.76,183.67c-.7,0-1.18.2-1.23,1s-.43.77-1.05.66c-2.35-.41-2.34-.39-1.93-2.72.29-1.6.55-3.21.78-4.82.08-.55.23-.79.83-.59a5.59,5.59,0,0,0,1.29.2c.78,0,1.27.22,1.08,1.19-.17.79.46,1,1.1,1.1l8.59,1.4c1.76.29,3.54.51,5.3.83.9.16,1.52,0,1.63-1,.07-.58.32-.65.87-.58,2.43.27,2.45.24,2.1,2.59-.23,1.57-.52,3.14-.72,4.71-.1.78-.44,1-1.18.82a6.64,6.64,0,0,0-1.17-.19c-.7-.05-1.11-.26-.93-1.1s-.54-1.13-1.22-1.25c-3.1-.5-6.2-1-9.31-1.47Z" style="fill:#fefefe"/><path d="M282.22,101.35a.48.48,0,0,1,0-.12c0-.47-.71-.93-.29-1.27a13.69,13.69,0,0,1,2.3-1.24c.38-.2.47.09.6.34l3.09,6c.12.24.34.48-.07.68-.74.38-1.48.77-2.23,1.13-.48.24-.52-.24-.63-.47a1.06,1.06,0,0,0-1.66-.52l-12.86,6.55a1,1,0,0,0-.48,1.66c.28.45.17.65-.27.92-2.22,1.33-2.21,1.35-3.36-.91-.72-1.41-1.42-2.84-2.17-4.24-.3-.56-.35-.94.35-1.18a4.11,4.11,0,0,0,1-.48c.71-.47,1.27-.68,1.74.36.34.75,1,.42,1.55.15,2.42-1.21,4.82-2.44,7.23-3.67q2.66-1.35,5.3-2.73C281.74,102.14,282.18,101.92,282.22,101.35Z" style="fill:#fefefe"/><path d="M269.62,74.58a2.33,2.33,0,0,1-.91,1.63,59.16,59.16,0,0,1-6.38,3.66.4.4,0,0,1-.6-.14c-.18-.26-.25-.47,0-.71,1.76-1.61,3.37-3.38,5.27-4.82a2.51,2.51,0,0,1,1.56-.52A.94.94,0,0,1,269.62,74.58Z" style="fill:#fefdfd"/><path d="M271.06,77.18c.91,0,1.29.57.95,1.43a3.46,3.46,0,0,1-1.61,1.7c-1.76,1-3.55,1.93-5.32,2.91-.34.18-.61.32-.9-.1s-.06-.49.15-.69c1.62-1.51,3.23-3.05,4.88-4.54A2.58,2.58,0,0,1,271.06,77.18Z" style="fill:#fefdfd"/><path d="M313.16,219l-5.92-.56c-.32,0-.62,0-.67-.48s.33-.58.67-.64c2.07-.34,4.15-.68,6.22-1a2.57,2.57,0,0,1,1.07,0c.71.19,1.63.29,1.59,1.29s-.91,1.11-1.65,1.26A7.8,7.8,0,0,1,313.16,219Z" style="fill:#fefdfd"/><path d="M313.05,223.22l-5.59-.52c-.32,0-.65,0-.69-.47s.26-.6.64-.67c2-.32,4-.66,6-1a3.46,3.46,0,0,1,2.21.32c.91.51.94,1.27.07,1.85A4.24,4.24,0,0,1,313.05,223.22Z" style="fill:#fefdfd"/><path d="M214,35.35l.29-.64c.34.36.16.64,0,.91Z" style="fill:#d47763"/><path d="M107,422a4.53,4.53,0,0,1-2.13,3.31,2.83,2.83,0,0,1-3.24-.21c-2.68-1.79-2.37-1.19-.81-3.65.6-.94,1.24-1.85,1.87-2.77.16-.23.31-.72.68-.47,1.26.87,2.78,1.45,3.42,3A4.51,4.51,0,0,1,107,422Z" style="fill:#2c3e6d"/><path d="M111.86,414.22a2.93,2.93,0,0,1-4.28,2.65c-2.76-1.37-2.76-1.37-1.08-3.86a4.66,4.66,0,0,1,.47-.69c.52-.53.6-1.69,1.48-1.6C109.76,410.85,111.86,413.21,111.86,414.22Z" style="fill:#2c3e6d"/><path d="M131.41,426.06c-.49,3.78-1.7,7.25-4.51,10a3.7,3.7,0,0,1-4.11,1.12,3.5,3.5,0,0,1-2.3-3.58,13.84,13.84,0,0,1,5.29-11.23c2.19-1.71,4.74-.65,5.42,2A7.71,7.71,0,0,1,131.41,426.06Z" style="fill:#2c3e6d"/><path d="M217.93,423.77c-3,2.12-3,2.12-3.79-1.15-.24-1-.48-2-.69-2.84Z" style="fill:#2e406f"/><path d="M42.61,129.68a15.89,15.89,0,0,1-1.14,3.46c-.13.37-.36.36-.65.24-1.52-.59-3-1.2-4.57-1.75-.49-.18-.47-.43-.32-.81.39-.92.71-1.86,1.15-2.75a2.27,2.27,0,0,1,3-1.32A3.06,3.06,0,0,1,42.61,129.68Z" style="fill:#c52d2d"/><path d="M98.38,61a4.75,4.75,0,0,1-2.16,3.82c-.61.48-1-.08-1.28-.45-2.76-3-5.52-6.08-8.24-9.15-.49-.56-1.47-1-1.28-1.82.25-1.09,2.93-2.42,4.1-2.24a3.57,3.57,0,0,1,1,.28,13.52,13.52,0,0,1,7.67,8.64A7.8,7.8,0,0,1,98.38,61Z" style="fill:#c52d2c"/><path d="M62.46,83.21A13.31,13.31,0,0,1,72,89.87c.92,1.67.29,3.24-.72,4.69-.4.57-.85.43-1.34.11L58.14,87c-.21-.13-.49-.21-.38-.62A5,5,0,0,1,62.46,83.21Z" style="fill:#c52d2c"/><path d="M188.74,34.55A17.6,17.6,0,0,1,190.92,27,9.47,9.47,0,0,1,192.31,25c1-1.06,2.12-1.77,3.6-1.3A3.37,3.37,0,0,1,198.16,27a16.27,16.27,0,0,1-2.86,10.73,5.65,5.65,0,0,1-1.12,1.22,3,3,0,0,1-5.08-1.38A8.87,8.87,0,0,1,188.74,34.55Z" style="fill:#c52d2c"/><path d="M291.72,161a8.15,8.15,0,0,1-2.61-.35,3.07,3.07,0,0,1-1.49-5.2,4.2,4.2,0,0,1,.78-.74,15.39,15.39,0,0,1,11.5-2.86,3.24,3.24,0,0,1,3,2.38,3.31,3.31,0,0,1-1.49,3.53C298.57,160,295.22,160.77,291.72,161Z" style="fill:#c52d2c"/><path d="M73.87,70c1.55.75,3.11,1.5,4.66,2.27.18.09.56.19.37.46-.52.7-1.1,1.35-1.67,2-.18.21-.34.06-.47-.12l-3.13-4.4Z" style="fill:#c5302f"/><path d="M135.71,26.93c1.06,1.83,1.95,3.35,2.83,4.88.17.3.29.55-.23.67-.84.2-1.66.46-2.6.73Z" style="fill:#c52f2e"/><path d="M234.33,47.72l-2.25,5.08s0,.1-.06.1c-1.11.18-1.49-.9-2.25-1.32-.59-.33-.06-.57.18-.76,1.39-1.08,2.78-2.14,4.17-3.2Z" style="fill:#c52f2e"/></g></g></svg>