<svg xmlns="http://www.w3.org/2000/svg" viewBox="0 0 726.15 180"><g id="b2ee67d7-537b-4887-9317-aae14291c617" data-name="Capa 2"><g id="ba9dee73-6f8f-4220-bea3-9333e09166a0" data-name="Capa 3"><polygon points="148.46 5.04 0 5.04 0 179.05 214.23 179.05 214.23 85.73 205.44 85.73 205.44 170.27 7.98 170.27 7.98 13.68 148.46 13.68 148.46 5.04" style="fill:#ffdf10"/><polygon points="10.94 159.23 17.48 166.25 63.32 118.25 71.91 124.1 106.7 88.2 126.75 103.81 199.18 27.32 206.3 40.2 217.59 0 176.68 15.22 192.63 20.3 127.16 90.15 104.55 75.32 71.91 112.01 62.09 106.54 10.94 159.23" style="fill:#182e4a"/><polygon points="328.22 139.25 242.08 139.25 242.08 6.75 328.22 6.75 328.22 27.98 266.88 27.98 266.88 59.66 328.22 59.66 328.22 80.39 266.88 80.39 266.88 116.86 328.22 116.86 328.22 139.25" style="fill:#182e4a"/><path d="M435,102.85a31.64,31.64,0,0,1-3.08,13.74,36.13,36.13,0,0,1-8.63,11.48,42.52,42.52,0,0,1-13.14,8,45.75,45.75,0,0,1-16.78,3,103,103,0,0,1-14.8-1,62.93,62.93,0,0,1-12.34-3,59,59,0,0,1-11.08-5.38,105,105,0,0,1-11-8l17.4-17.84a50.08,50.08,0,0,0,14.89,9.09,46.09,46.09,0,0,0,15.83,2.64,20.26,20.26,0,0,0,6.56-1,18.18,18.18,0,0,0,5.38-2.81,13.4,13.4,0,0,0,3.64-4.18,10.63,10.63,0,0,0,1.35-5.3,12.87,12.87,0,0,0-1.11-5.46,13.13,13.13,0,0,0-4-4.66,39.67,39.67,0,0,0-7.92-4.58q-5.07-2.33-13-5.23a120,120,0,0,1-13.38-5.86,47.26,47.26,0,0,1-11.24-8,36.77,36.77,0,0,1-7.75-10.93A34.68,34.68,0,0,1,348,42.76a35,35,0,0,1,3.24-15.11,35.62,35.62,0,0,1,8.86-11.81A41,41,0,0,1,373.2,8.21a47.16,47.16,0,0,1,16.22-2.73Q404,5.48,414,9.33a53.54,53.54,0,0,1,17.73,11.25L414.59,38.1A34,34,0,0,0,404,31a34.74,34.74,0,0,0-13.76-2.5,19.52,19.52,0,0,0-6.73,1.13,17.63,17.63,0,0,0-5.3,3,14.86,14.86,0,0,0-3.57,4.34,10.93,10.93,0,0,0-1.34,5.22,12,12,0,0,0,1.27,5.54,14.58,14.58,0,0,0,4.27,4.83,42.78,42.78,0,0,0,8,4.65q5,2.34,12.42,5.07a94.76,94.76,0,0,1,16.31,7.39,45.89,45.89,0,0,1,11.07,8.84A31.55,31.55,0,0,1,433,89.27,42,42,0,0,1,435,102.85" style="fill:#182e4a"/><path d="M584.54,139.25H556.81l-12.08-26.5h-63.3l-12.24,26.5H441.46L503.13,6.75h19.74ZM534.78,91.39l-21.7-47.7-22,47.7Z" style="fill:#182e4a"/><polygon points="726.15 139.25 701.36 139.25 701.36 46.99 660 85.3 620.76 47.74 620.76 139.25 595.96 139.25 595.96 6.75 624.51 6.75 661.05 47.93 698.58 6.75 726.15 6.75 726.15 139.25" style="fill:#182e4a"/><polygon points="242.08 179.44 242.08 149.73 261.93 149.73 261.93 156.2 249.46 156.2 249.46 160.82 261.78 160.82 261.78 167.19 249.46 167.19 249.46 172.63 261.93 172.63 261.93 179.44 242.08 179.44" style="fill:#182e4a"/><path d="M276,180a24.65,24.65,0,0,1-3.35-.21,15.07,15.07,0,0,1-2.91-.68,13.31,13.31,0,0,1-2.64-1.26,19,19,0,0,1-2.54-1.89l5.26-5.34a9.91,9.91,0,0,0,2.88,1.67,9,9,0,0,0,3.07.52,2.63,2.63,0,0,0,1.88-.59,1.68,1.68,0,0,0,.61-1.16,2,2,0,0,0-.09-.63,1.69,1.69,0,0,0-.55-.76,8.75,8.75,0,0,0-1.42-.89,26.15,26.15,0,0,0-2.66-1.11,30.71,30.71,0,0,1-3-1.31,11,11,0,0,1-2.62-1.85,8.29,8.29,0,0,1-2.62-6.32,8.89,8.89,0,0,1,.77-3.73,8.49,8.49,0,0,1,2.11-2.87,9.54,9.54,0,0,1,3.12-1.84,11,11,0,0,1,3.83-.66,19.6,19.6,0,0,1,3,.21,14.74,14.74,0,0,1,2.52.61,11.76,11.76,0,0,1,2.23,1.08,18.29,18.29,0,0,1,2.14,1.6L279.88,158a6.44,6.44,0,0,0-4.55-1.74,2.53,2.53,0,0,0-1.88.63,1.82,1.82,0,0,0-.62,1.19,1.67,1.67,0,0,0,.14.63,2.13,2.13,0,0,0,.62.75,7.69,7.69,0,0,0,1.43.89,24.76,24.76,0,0,0,2.58,1.08,24.06,24.06,0,0,1,3.65,1.69,10.6,10.6,0,0,1,2.6,2.09,8,8,0,0,1,1.52,2.63,10.19,10.19,0,0,1,.5,3.31,8.32,8.32,0,0,1-.76,3.57,8.57,8.57,0,0,1-2.09,2.81,9.63,9.63,0,0,1-3.13,1.84A11.05,11.05,0,0,1,276,180" style="fill:#182e4a"/><path d="M304.27,180a15.88,15.88,0,0,1-11.16-4.49,16,16,0,0,1-3.39-4.92,14.74,14.74,0,0,1-1.24-6,15,15,0,0,1,1.24-6.08,16.19,16.19,0,0,1,21.47-7.89,16.55,16.55,0,0,1,5.48,4.32l-5.4,5.55a8.9,8.9,0,0,0-3.09-3,8.07,8.07,0,0,0-3.91-1,8.16,8.16,0,0,0-3.23.63,7.7,7.7,0,0,0-2.53,1.73,7.93,7.93,0,0,0-1.65,2.57,8.22,8.22,0,0,0-.6,3.15,8.08,8.08,0,0,0,.6,3.1A7.75,7.75,0,0,0,301,172a8.16,8.16,0,0,0,3.23.63,7.86,7.86,0,0,0,4.06-1.08,8.75,8.75,0,0,0,3-3.09l5.4,5.55a16.4,16.4,0,0,1-5.66,4.52,15.9,15.9,0,0,1-6.81,1.51" style="fill:#182e4a"/><path d="M345.86,165.74a16.25,16.25,0,0,1-.93,5.53,13.56,13.56,0,0,1-2.67,4.52,12.29,12.29,0,0,1-4.2,3.05,13.57,13.57,0,0,1-5.61,1.12,13.71,13.71,0,0,1-5.55-1.1,12.45,12.45,0,0,1-4.24-3,13.52,13.52,0,0,1-2.71-4.49,15.3,15.3,0,0,1-1-5.48V149.65h7.7v16.28a9.16,9.16,0,0,0,.37,2.62,6.08,6.08,0,0,0,1.1,2.08,5.11,5.11,0,0,0,1.79,1.36,5.72,5.72,0,0,0,2.44.49,5.17,5.17,0,0,0,4.3-1.76,7.28,7.28,0,0,0,1.4-4.69V149.65h7.78Z" style="fill:#182e4a"/><polygon points="350.33 179.44 350.33 149.73 370.17 149.73 370.17 156.2 357.7 156.2 357.7 160.82 370.02 160.82 370.02 167.19 357.7 167.19 357.7 172.63 370.17 172.63 370.17 179.44 350.33 179.44" style="fill:#182e4a"/><polygon points="374.27 179.44 374.27 149.69 382.05 149.69 382.05 172.06 394.42 172.06 394.42 179.44 374.27 179.44" style="fill:#182e4a"/><path d="M420.4,179.44l-2.53-5.58H405.55L403,179.44h-8.23L409,149.65h5.5l14.19,29.79Zm-8.67-19.33-3.24,7.26h6.44Z" style="fill:#182e4a"/><path d="M455.14,179.44H442.63V149.61h12.51a13.48,13.48,0,0,1,5.66,1.19,14.25,14.25,0,0,1,4.51,3.23,14.79,14.79,0,0,1,3,4.74,16.15,16.15,0,0,1,0,11.51,14.79,14.79,0,0,1-3,4.74,14.25,14.25,0,0,1-4.51,3.23,13.48,13.48,0,0,1-5.66,1.19m-1.52-23.35h-3.46v16.57h3.46a7.24,7.24,0,0,0,3.11-.67,8.49,8.49,0,0,0,2.51-1.8,8.46,8.46,0,0,0,2.31-5.8,8,8,0,0,0-.62-3,8.72,8.72,0,0,0-1.69-2.66,8.57,8.57,0,0,0-2.51-1.88,7,7,0,0,0-3.11-.71" style="fill:#182e4a"/><polygon points="473.43 179.44 473.43 149.73 493.27 149.73 493.27 156.2 480.8 156.2 480.8 160.82 493.12 160.82 493.12 167.19 480.8 167.19 480.8 172.63 493.27 172.63 493.27 179.44 473.43 179.44" style="fill:#182e4a"/><polygon points="526.79 179.44 516.25 162.83 516.25 179.44 508.73 179.44 508.73 149.65 516.47 149.65 526.27 164.99 526.27 149.65 533.79 149.65 533.79 179.44 526.79 179.44" style="fill:#182e4a"/><polygon points="539 179.44 539 149.73 558.84 149.73 558.84 156.2 546.37 156.2 546.37 160.82 558.7 160.82 558.7 167.19 546.37 167.19 546.37 172.63 558.84 172.63 558.84 179.44 539 179.44" style="fill:#182e4a"/><path d="M577.65,180a15.72,15.72,0,0,1-14.55-9.37,14.53,14.53,0,0,1-1.28-6.08,14.76,14.76,0,0,1,1.25-6.05,15.61,15.61,0,0,1,8.46-8.21,16.49,16.49,0,0,1,13.07.31,16.52,16.52,0,0,1,5.45,4.3l-5.25,5.4a8.12,8.12,0,0,0-3.11-2.91,8.72,8.72,0,0,0-4-1,8.26,8.26,0,0,0-3.29.65,8.37,8.37,0,0,0-2.61,1.75,7.72,7.72,0,0,0-1.7,2.59,8.55,8.55,0,0,0-.59,3.17,8.43,8.43,0,0,0,.59,3.14,7.74,7.74,0,0,0,1.7,2.57,8.26,8.26,0,0,0,5.9,2.4,8.07,8.07,0,0,0,2.9-.5,8.51,8.51,0,0,0,2.43-1.4v-1h-5.63v-6.82h13v10.84a15.72,15.72,0,0,1-6,4.79,16.92,16.92,0,0,1-6.69,1.43" style="fill:#182e4a"/><path d="M609.15,180a15.93,15.93,0,0,1-6.12-1.19,15.69,15.69,0,0,1-5-3.3,16.32,16.32,0,0,1-3.41-4.91,15.25,15.25,0,0,1,0-12.14,16,16,0,0,1,3.41-4.9,16.19,16.19,0,0,1,17.26-3.28,16.1,16.1,0,0,1,5,3.28,15.53,15.53,0,0,1,3.42,4.92,15.43,15.43,0,0,1,0,12.12,15.62,15.62,0,0,1-3.42,4.89,16.33,16.33,0,0,1-5,3.3,15.67,15.67,0,0,1-6.11,1.21m0-23.72a7.65,7.65,0,0,0-3.2.67,8.49,8.49,0,0,0-2.61,1.81,8.33,8.33,0,0,0-1.74,2.62,7.87,7.87,0,0,0-.64,3.16,7.73,7.73,0,0,0,.65,3.15,8.91,8.91,0,0,0,1.77,2.65,8.57,8.57,0,0,0,2.61,1.8,7.81,7.81,0,0,0,6.33,0,8.64,8.64,0,0,0,2.6-1.8,8.32,8.32,0,0,0,1.75-2.65,8.1,8.1,0,0,0,0-6.31,8.19,8.19,0,0,0-1.75-2.62,8.33,8.33,0,0,0-2.6-1.81,7.61,7.61,0,0,0-3.17-.67" style="fill:#182e4a"/><path d="M643.71,180a15.76,15.76,0,0,1-6.15-1.2,15.48,15.48,0,0,1-5-3.29,15.67,15.67,0,0,1-3.39-4.92,14.58,14.58,0,0,1-1.25-6,14.8,14.8,0,0,1,1.25-6.08,15.46,15.46,0,0,1,8.41-8.18,16.55,16.55,0,0,1,13,.29,16.35,16.35,0,0,1,5.48,4.32l-5.4,5.55a8.82,8.82,0,0,0-3.09-3,8,8,0,0,0-3.91-1,8.16,8.16,0,0,0-3.23.63,7.55,7.55,0,0,0-2.52,1.73,7.79,7.79,0,0,0-1.66,2.57,8.22,8.22,0,0,0-.6,3.15,8.08,8.08,0,0,0,.6,3.1,7.84,7.84,0,0,0,4.18,4.31,8.16,8.16,0,0,0,3.23.63,7.83,7.83,0,0,0,4.06-1.08,8.78,8.78,0,0,0,3-3.09l5.4,5.55a16.52,16.52,0,0,1-5.67,4.52,15.87,15.87,0,0,1-6.81,1.51" style="fill:#182e4a"/><rect x="658.79" y="149.68" width="7.7" height="29.75" style="fill:#182e4a"/><path d="M686.42,180a15.86,15.86,0,0,1-11.16-4.49,16.11,16.11,0,0,1-3.4-4.91,15.14,15.14,0,0,1,0-12.14,16.05,16.05,0,0,1,20.66-8.18,16.15,16.15,0,0,1,5,3.28,15.5,15.5,0,0,1,3.41,4.92,15.43,15.43,0,0,1,0,12.12,15.59,15.59,0,0,1-3.41,4.89,16.38,16.38,0,0,1-5,3.3,15.62,15.62,0,0,1-6.1,1.21m0-23.72a7.66,7.66,0,0,0-3.21.67,8.33,8.33,0,0,0-2.6,1.81,8.19,8.19,0,0,0-1.75,2.62,8.16,8.16,0,0,0,0,6.31,8.91,8.91,0,0,0,1.77,2.65,8.82,8.82,0,0,0,2.61,1.8,7.81,7.81,0,0,0,6.33,0,8.82,8.82,0,0,0,2.61-1.8,8.67,8.67,0,0,0,1.75-2.65,8.22,8.22,0,0,0,0-6.31,8.47,8.47,0,0,0-4.36-4.43,7.57,7.57,0,0,0-3.16-.67" style="fill:#182e4a"/><path d="M716.24,180a24.76,24.76,0,0,1-3.35-.21,15,15,0,0,1-2.9-.68,13.66,13.66,0,0,1-2.65-1.26,18.88,18.88,0,0,1-2.53-1.89l5.25-5.34a10,10,0,0,0,2.88,1.67,9.1,9.1,0,0,0,3.08.52,2.65,2.65,0,0,0,1.88-.59,1.68,1.68,0,0,0,.61-1.16,2.39,2.39,0,0,0-.09-.63,1.73,1.73,0,0,0-.56-.76,7.79,7.79,0,0,0-1.41-.89,27.53,27.53,0,0,0-2.67-1.11,30.71,30.71,0,0,1-3-1.31,11.42,11.42,0,0,1-2.63-1.85,8.37,8.37,0,0,1-2.6-6.32,8.88,8.88,0,0,1,.76-3.73,8.74,8.74,0,0,1,2.1-2.87,9.64,9.64,0,0,1,3.14-1.84,11,11,0,0,1,3.83-.66,19.6,19.6,0,0,1,3,.21,14.62,14.62,0,0,1,2.51.61,11.84,11.84,0,0,1,2.24,1.08,18.29,18.29,0,0,1,2.14,1.6L720.15,158a6.41,6.41,0,0,0-4.54-1.74,2.51,2.51,0,0,0-1.88.63,1.78,1.78,0,0,0-.62,1.19,1.87,1.87,0,0,0,.13.63,2.32,2.32,0,0,0,.61.75,8.19,8.19,0,0,0,1.44.89,26.06,26.06,0,0,0,2.59,1.08,24.52,24.52,0,0,1,3.65,1.69,10.3,10.3,0,0,1,2.58,2.09,7.85,7.85,0,0,1,1.54,2.63,10.19,10.19,0,0,1,.5,3.31,8.46,8.46,0,0,1-.76,3.57,8.72,8.72,0,0,1-2.09,2.81,9.63,9.63,0,0,1-3.13,1.84,11.11,11.11,0,0,1-3.93.68" style="fill:#182e4a"/></g></g></svg>